<svg width="341" height="732" viewBox="0 0 341 732" fill="none" xmlns="http://www.w3.org/2000/svg">
<path d="M248 256L250 257L253 268L258 294L260 306L266 334L271 358L276 382L279 402L282 414L285 428V440L281 441L277 437L273 428L266 416L260 405L255 395L249 384L243 373L236 361L230 348L226 341L217 325V323H215L213 329L208 338L202 348L192 365L188 373L182 383L180 387H178V389H169L164 354L163 327V325L161 320V311L162 306V298L168 269L169 266H209V269H211L214 279V284L219 279H222L224 275L235 267L238 264L248 256Z" fill="#E9E9E9"/>
<path d="M145 138L160 139L184 142L195 149L205 156L210 158V160L216 162L220 166L218 167L221 169L222 255L221 257L215 255L205 249L199 246L196 242L192 224L189 231L188 237L186 233L189 220V212L186 202L181 183L171 177L158 169L153 170L144 177L133 185L124 191L120 194L119 242L116 246H114L113 242L110 241L103 226L104 217L109 194L113 178L117 161L121 157L131 154L132 150H136V148L143 143L145 138Z" fill="#D17F36"/>
<path d="M155 168L160 169L174 178L182 183L187 202L190 212V220L185 239L176 243L152 252L148 253L126 240L125 238L120 203L119 194L131 185L137 181L146 174L155 168ZM124 198V206H135V198H124ZM147 198V206H164V198H147Z" fill="#EBC39A"/>
<path d="M98 262L102 264L113 277L119 284L121 285L123 274L127 265H210L209 269V266L169 267H146L142 285L136 310L137 319L147 350V352H145L142 343V339H140L139 331L136 332L132 339L128 338L124 330L121 325L119 324L118 329L115 334L111 344L106 356L102 365L94 383L91 387L88 395L83 396L84 382L85 381V359L89 326L92 307L94 288L98 262Z" fill="#D5D5D3"/>
<path d="M123 458L128 462L133 467L142 475L147 480L153 489L151 514L147 556L143 591L139 625L137 646L134 671L133 672L132 681L130 682L129 677L127 570L115 568L111 567L112 571V578H111L107 553V544H108L109 553L126 550H129L128 520L125 462L123 458Z" fill="#1C1C27"/>
<path d="M199 429L204 430L205 433L210 435L217 441L227 448L237 456L240 459L241 463L242 496V546L229 550L219 553L217 552L213 525L208 496L205 475L199 437V429Z" fill="#37394E"/>
<path d="M89 426L94 428L107 441V443L111 445L120 454L123 456L125 461L126 462L129 520V550L113 553H109L108 544H106L101 508L98 491L95 471L89 435L88 427L89 426Z" fill="#2B2C3D"/>
<path d="M164 28L169 30L176 34V36L181 37L190 42L191 43V75L181 81L167 88L163 89L142 77L138 74V43L142 40L149 37L158 31L164 28Z" fill="#D5B237"/>
<path d="M245 560H246V567H252V562L253 564H255V572H252V569L243 570L241 619L239 687L238 699H236L230 651L227 633L225 617L223 594L219 568V562L229 563L243 565L244 566L245 560Z" fill="#36384C"/>
<path d="M178 387L183 392L192 401L197 406L200 409L199 415L194 420L177 436L164 449L160 448V446H162L164 408L165 390L156 392L146 402L144 401L155 390L159 388L178 389V387Z" fill="#21212E"/>
<path d="M191 221L193 224L197 242L202 247L214 253L220 257L219 259L159 262L122 263L117 255L112 245L113 242L114 246L119 242V255L122 256L123 259H146L147 256L154 250L184 239L186 235L188 231L191 221Z" fill="#965328"/>
<path d="M196 19L202 21L208 25L210 28L214 29V82L213 88L207 93L204 95H198V97L191 98V96L189 95L191 91L189 86L196 84L197 80L198 79V37L192 32L190 31L191 26L192 21L196 19Z" fill="#E4BC3A"/>
<path d="M135 315L139 316L146 321L151 320L157 315H159L161 322L167 369L169 384V389H159L155 386L156 383L157 384V374H155L152 364L148 352V348L145 347L135 315Z" fill="#B36736"/>
<path d="M111 567L119 568L127 570L128 573L130 677V692H129L125 668L122 651L118 625L113 593L112 587L111 567Z" fill="#2A2A3A"/>
<path d="M146 267H169L164 292L160 312L157 313L149 308L143 310L138 313H136L135 315L136 306L142 280L146 267Z" fill="#B36634"/>
<path d="M158 390H165V408L163 440L162 446L157 445L147 430L136 417L134 413L135 409L143 402L148 399L156 391L158 390Z" fill="#37384D"/>
<path d="M136 22H138L137 26L140 27V30L136 31L134 35L127 36V79H129L131 81L135 84V86L126 93H124L123 91L114 88V29L121 25H133L136 22Z" fill="#E5BE39"/>
<path d="M240 459L249 465L265 477L268 480L267 491L264 509H262V511L259 512L258 500L259 492H248V516L245 513H243L242 515L240 463V459Z" fill="#20242D"/>
<path d="M243 569H245V591H251V578L252 572H255V581L251 610L248 632L244 659L241 684L239 698H238L239 660L240 619L242 570L243 569Z" fill="#1D1F29"/>
<path d="M161 0H167L169 4L173 5L174 7L178 9V11H182L181 14L175 15V19H171V17H166V15H162V17L157 19L154 24L143 31L136 35L134 34L138 30H140L138 27L136 26L138 22L133 26H119L123 22L141 12L150 6L156 3L161 0Z" fill="#D0AB35"/>
<path d="M119 198H120L125 229L126 240L131 242L148 252L152 253L150 256L147 257L146 259L136 260H123L121 256L119 255V198Z" fill="#B26431"/>
<path d="M213 525H214L218 552L225 550L237 547L238 546H245L246 544V560L244 567L243 565L229 564L219 562L224 594L225 610H224L222 598L220 581L217 563L214 541L213 535V525Z" fill="#1D202A"/>
<path d="M167 1L171 2L181 7V9L187 11L192 15L200 19L196 20L192 21V26L190 31L196 33V35L199 37V79H198L197 38L192 35L183 29L174 24L165 19L160 21L156 22L157 18L162 17V15H166V17H171V19L174 18L175 14L181 13L182 11H178L177 9L173 7V5L168 4L167 1Z" fill="#AA8C2E"/>
<path d="M181 88H183V90H180L179 95L174 96L171 97V101L176 103L174 106L181 107L185 106L181 110L175 113L166 119L161 117L147 109L145 106L155 108V106L163 102L162 98L166 97L170 96V94L181 88Z" fill="#BB9B31"/>
<path d="M129 79L138 82L147 88L148 92L142 102L145 104V106L139 104L128 98L118 92L117 89L124 91V93L133 86H135V84L130 82L129 79Z" fill="#A1842A"/>
<path d="M194 80L197 81L196 84L193 86H189V88L191 89V92V96L192 103L183 107L179 108L173 106V103L170 101L171 97L176 94L179 93L180 90H183L184 86L194 80Z" fill="#D5B036"/>
<path d="M147 89L153 91L162 97V101L164 102L158 106H155V108H148L141 102L143 101V97L145 95L146 92H148L147 89Z" fill="#D7B036"/>
<path d="M248 492H259L258 515L257 516H248V492Z" fill="#EAEBCA"/>
<path d="M258 506H259L260 511H262L263 509V518L257 561L256 572H255V564H253V551L255 543L256 522L258 519H261L262 513L258 514V506Z" fill="#1E2025"/>
<path d="M245 512L247 513V516L257 515L262 513L261 519L257 520V518H247V542H255V546L254 544H245V546H242V515L245 512Z" fill="#282B33"/>
<path d="M247 518H257L255 542H247V518Z" fill="#EBEAC9"/>
<path d="M147 307L152 309L157 312H160V317L159 315L150 322L145 321L136 315V313L147 307Z" fill="#FAF1C0"/>
<path d="M246 544H254L253 562L252 567H246V544Z" fill="#EEEECE"/>
<path d="M200 20L205 21L210 25L215 28V89L205 96L194 102H192V97H198V95L205 93L209 91L211 88H213L214 29L209 28L204 23L200 20Z" fill="#8E7A34"/>
<path d="M129 338L131 339V341H133L134 339H137L138 349L139 353L142 354L143 351L148 353L150 362L148 361V359H146V366L141 361L135 349L129 340V338Z" fill="#B4B1AF"/>
<path d="M245 569H252L251 591H245V569Z" fill="#DEDFC4"/>
<path d="M147 198H164V206H147V198Z" fill="#2A242C"/>
<path d="M136 331H139L140 339H142L145 350V352H143L142 354L138 353L137 347L136 340L131 341L133 336L136 331Z" fill="#EAECEA"/>
<path d="M220 166L223 167V256L222 258L220 257L221 255V168L220 166Z" fill="#975429"/>
<path d="M132 35L134 36L132 38H129V79H127V36L132 35Z" fill="#BDA249"/>
<path d="M217 165L222 168V251H221V169L217 167V165Z" fill="#CF8B4E"/>
<path d="M285 432L287 436L289 448L291 456L287 455L282 446L280 443L281 440H284L285 432Z" fill="#7D7D7D"/>
<path d="M124 198H135V206H124V198Z" fill="#28222A"/>
<path d="M146 348H148L153 364V368L155 369V374H157L158 379V386L156 385V383L153 382L150 377L151 374L153 377H155L146 350V348Z" fill="#A4775A"/>
<path d="M146 359H148L152 366L155 377L152 378L151 374H149L146 368L145 362L146 359Z" fill="#DCD7D1"/>
<path d="M84 371H85L86 382H84V393L83 396H85L86 394L87 397L83 407L80 408L82 391L84 371Z" fill="#757575"/>
<path d="M116 26L119 27L115 29V88L118 91L113 89V28L116 26Z" fill="#AD8D2C"/>
<path d="M143 139L145 140L143 144L138 148H136V150H132L131 154L125 157L123 156L130 150L133 147L139 142L143 139Z" fill="#6E4222"/>
<path d="M132 672H133V684L132 695L131 697L128 696L127 687V678H128L129 685L131 681L132 672Z" fill="#0F0E14"/>
<path d="M161 304L163 306L162 311V320L163 324L165 326L164 331V344H163L160 322V308L161 304Z" fill="#F4E2D6"/>
</svg>
