<svg width="1920" height="1080" viewBox="0 0 1920 1080" fill="none" xmlns="http://www.w3.org/2000/svg">
<g clip-path="url(#clip0_71_5)">
<g clip-path="url(#clip1_71_5)">
<path d="M1920 0H0V1080H1920V0Z" fill="url(#paint0_linear_71_5)"/>
<path d="M960 200L1100 310L1210 450L1100 590L960 700L820 590L710 450L820 310L960 200Z" fill="#FDF0D5"/>
<path opacity="0.4" d="M960 130L1150 260L1280 450L1150 640L960 770L770 640L640 450L770 260L960 130Z" fill="#FDF0D5"/>
<path opacity="0.2" d="M960 50L1200 210L1360 450L1200 690L960 850L720 690L560 450L720 210L960 50Z" fill="#FDF0D5"/>
<path opacity="0.6" d="M400 290H200V310H400V290Z" fill="white"/>
<path opacity="0.6" d="M350 320H250V340H350V320Z" fill="white"/>
<path opacity="0.5" d="M1700 240H1400V265H1700V240Z" fill="white"/>
<path opacity="0.5" d="M1600 275H1450V300H1600V275Z" fill="white"/>
<path opacity="0.4" d="M850 140H700V155H850V140Z" fill="white"/>
<path d="M100 1080V400H140V440L160 480L180 440V380H250V1080H100Z" fill="#E4DFD4"/>
<path d="M120 380L140 360L130 340L110 350L120 380Z" fill="#E4DFD4"/>
<path d="M220 1080V570H260V600L280 640L300 600V520H350V560H400V1080H220Z" fill="#DED8CC"/>
<path d="M320 490L340 480L330 460L320 490Z" fill="#DED8CC"/>
<path opacity="0.8" d="M400 1080V700H430L580 300L610 320L550 500L570 520L500 1080H400Z" fill="#DED8CC"/>
<path opacity="0.8" d="M560 250L590 280L570 300L560 250Z" fill="#DED8CC"/>
<path d="M460 700V600V700ZM490 750V500V750ZM410 650H510H410ZM420 580H540H420ZM440 500H570H440Z" fill="black"/>
<path d="M460 700V600M490 750V500M410 650H510M420 580H540M440 500H570" stroke="#C8C2B3" stroke-width="3"/>
<path d="M380 1080V500H420V580H450V450H580V1080H380Z" fill="#E4DFD4"/>
<path d="M490 500H470V530H490V500Z" fill="#C8C2B3"/>
<path d="M530 500H510V530H530V500Z" fill="#C8C2B3"/>
<path d="M490 550H470V580H490V550Z" fill="#C8C2B3"/>
<path d="M470 600L500 620L480 680L520 700L500 800" stroke="#C8C2B3" stroke-width="2"/>
<path d="M600 1080V650H620V700H650V620H680V680H730V600H760V660H800V1080H600Z" fill="#D8D2C4"/>
<path d="M850 1080V400H880V460H920V320H960V380H1000V450H1050V1080H850Z" fill="#E4DFD4"/>
<path d="M1100 1080V500H1140V550H1180V480H1230V520H1300V1080H1100Z" fill="#DED8CC"/>
<path d="M1180 600H1140V615H1180V600Z" fill="#C8C2B3"/>
<path d="M1180 640H1140V655H1180V640Z" fill="#C8C2B3"/>
<path d="M1180 680H1140V695H1180V680Z" fill="#C8C2B3"/>
<path d="M1180 720H1140V735H1180V720Z" fill="#C8C2B3"/>
<path d="M1160 550V1080V550Z" fill="black"/>
<path d="M1160 550V1080" stroke="#B0A89A" stroke-width="4"/>
<path d="M1250 1080V320H1280V280H1310V230H1350V300L1370 340L1400 300V1080H1250Z" fill="#D8D2C4"/>
<path d="M1320 180L1350 200L1330 210L1320 180Z" fill="#D8D2C4"/>
<path d="M624 580H620V620H624V580Z" fill="#D8D2C4"/>
<path d="M703 550H700V600H703V550Z" fill="#D8D2C4"/>
<path d="M1316 100H1310V230H1316V100Z" fill="#D8D2C4"/>
<path d="M1355 150H1350V230H1355V150Z" fill="#D8D2C4"/>
<path d="M1374 200H1370V300H1374V200Z" fill="#D8D2C4"/>
<path d="M1450 1080V630H1480V700H1520V600H1570V650H1650V1080H1450Z" fill="#E4DFD4"/>
<path d="M1600 1080V480H1650V560H1700V450H1760V520H1800V1080H1600Z" fill="#DED8CC"/>
<path d="M1750 1080V400H1820V480H1860L1920 200V1080H1750Z" fill="#D8D2C4"/>
<path d="M360 270H410L440 300H390L360 270Z" fill="#E8CDB7"/>
<path d="M1230 220H1280L1310 250H1260L1230 220Z" fill="#E8CDB7"/>
<path d="M1850 300H1880L1910 340H1880L1850 300Z" fill="#E8CDB7"/>
</g>
</g>
<g clip-path="url(#clip2_71_5)">
<g clip-path="url(#clip3_71_5)">
<path d="M0 1080V650H40V720L60 760L90 720V600H140V750L180 800L220 750H250V1080H0Z" fill="#D0C8B6"/>
<path d="M100 560L130 550L120 580L100 560Z" fill="#D0C8B6"/>
<path opacity="0.9" d="M150 1080V850L280 600L290 640L270 660L320 620L220 1080H150Z" fill="#BBB19A"/>
<path d="M290 560L320 580L300 590L290 560Z" fill="#BBB19A"/>
<path d="M280 1080V400H310V480H350V350H390V450H430V1080H280Z" fill="#C5BCA8"/>
<path d="M360 310L390 320L370 330L360 310Z" fill="#C5BCA8"/>
<path d="M300 700H380L360 850L290 820L300 700Z" fill="#F4F1EA"/>
<path d="M340 850H360L320 950H310L340 850Z" fill="#F4F1EA"/>
<path d="M500 1080V550H540V640H600V520H670V600H700V1080H500Z" fill="#BBB19A"/>
<path d="M650 1080V450H680V350H720V420H760V380H800V1080H650Z" fill="#D0C8B6"/>
<path d="M730 310L760 330L740 340L730 310Z" fill="#D0C8B6"/>
<path d="M680 800L780 850L750 920L660 850L680 800Z" fill="#F4F1EA"/>
<path d="M700 920L730 950L680 980L700 920Z" fill="#F4F1EA"/>
<path d="M900 1080V750H920V800H960V620H1020V700H1070V650H1150V1080H900Z" fill="#C5BCA8"/>
<path d="M980 570L1020 590L990 600L980 570Z" fill="#C5BCA8"/>
<path d="M950 850L1020 830L1050 920L980 950L950 850Z" fill="#F4F1EA"/>
<path d="M980 950H1000L1020 1020H1000L980 950Z" fill="#F4F1EA"/>
<path d="M1080 600L1250 900L1220 920L1050 620L1080 600Z" fill="#BBB19A"/>
<path d="M1150 750H1190L1170 780L1150 750Z" fill="#F4F1EA"/>
<path d="M1200 1080V480H1230V550H1270V420H1320V500H1400V1080H1200Z" fill="#D0C8B6"/>
<path d="M1450 1080V350H1480V420H1520V280H1580V400H1600V1080H1450Z" fill="#BBB19A"/>
<path d="M1650 1080V650H1680V720H1740V580H1800V480H1870V600H1920V1080H1650Z" fill="#C5BCA8"/>
<path d="M70 650H50V690H70V650Z" fill="#E2DEC3"/>
<path d="M110 650H90V690H110V650Z" fill="#E2DEC3"/>
<path d="M70 750H50V790H70V750Z" fill="#E2DEC3"/>
<path d="M340 550H310V570H340V550Z" fill="#E2DEC3"/>
<path d="M390 550H360V570H390V550Z" fill="#E2DEC3"/>
<path d="M340 650H310V670H340V650Z" fill="#E2DEC3"/>
<path d="M390 650H360V670H390V650Z" fill="#E2DEC3"/>
<path d="M660 600H540V615H660V600Z" fill="#D3CCB0"/>
<path d="M660 650H540V665H660V650Z" fill="#D3CCB0"/>
<path d="M660 700H540V715H660V700Z" fill="#D3CCB0"/>
<path d="M700 400H680V480H700V400Z" fill="#E2DEC3"/>
<path d="M730 400H710V480H730V400Z" fill="#E2DEC3"/>
<path d="M1270 520H1230V540H1270V520Z" fill="#E2DEC3"/>
<path d="M1370 520H1330V540H1370V520Z" fill="#D3CCB0"/>
<path d="M1370 560H1330V580H1370V560Z" fill="#D3CCB0"/>
<path d="M1510 350H1480V430H1510V350Z" fill="#D3CCB0"/>
<path d="M1570 350H1540V430H1570V350Z" fill="#D3CCB0"/>
<path d="M1760 650H1700V670H1760V650Z" fill="#E2DEC3"/>
<path d="M1760 700H1700V720H1760V700Z" fill="#E2DEC3"/>
<path d="M180 1080C160 993.333 170 926.667 210 880C250 833.333 260 766.667 240 680C246.667 646.667 243.333 626.667 230 620" stroke="#8BA87D" stroke-width="4" stroke-linecap="round"/>
<path d="M170 950C136.667 903.333 133.333 860 160 820C186.667 780 176.667 766.667 130 780" stroke="#738F65" stroke-width="3" stroke-linecap="round"/>
<path d="M190 750L210 740L200 760L190 750Z" fill="#8BA87D"/>
<path d="M230 680L250 670L240 700L230 680Z" fill="#8BA87D"/>
<path d="M210 880L230 870L220 890L210 880Z" fill="#738F65"/>
<path d="M160 820L180 810L170 830L160 820Z" fill="#8BA87D"/>
<path opacity="0.9" d="M150 860L170 840L180 870L160 890L150 860Z" fill="#8BA87D"/>
<path opacity="0.8" d="M230 820L250 790L260 830L230 820Z" fill="#738F65"/>
<path d="M450 1080C416.666 993.333 426.666 926.667 480 880C533.333 833.333 536.666 790 490 750C496.666 716.667 486.666 693.333 460 680" stroke="#8BA87D" stroke-width="4" stroke-linecap="round"/>
<path d="M430 950C383.333 930 376.667 896.667 410 850C443.333 803.333 436.667 770 390 750" stroke="#738F65" stroke-width="3" stroke-linecap="round"/>
<path d="M450 880L470 870L460 890L450 880Z" fill="#8BA87D"/>
<path d="M480 780L500 760L490 790L480 780Z" fill="#8BA87D"/>
<path d="M440 820L420 810L450 800L440 820Z" fill="#8BA87D"/>
<path d="M410 850L390 840L420 830L410 850Z" fill="#738F65"/>
<path opacity="0.85" d="M380 800L400 770L420 810L380 800Z" fill="#8BA87D"/>
<path opacity="0.9" d="M470 720L500 690L510 740L480 750L470 720Z" fill="#738F65"/>
<path d="M720 380C753.333 426.667 756.667 473.333 730 520C703.333 566.667 710 620 750 680" stroke="#8BA87D" stroke-width="3" stroke-linecap="round"/>
<path d="M750 450C783.333 483.333 786.667 520 760 560C733.333 600 740 646.667 780 700" stroke="#738F65" stroke-width="2" stroke-linecap="round"/>
<path d="M730 520L710 500L740 480L730 520Z" fill="#8BA87D"/>
<path d="M780 600L800 580L790 620L780 600Z" fill="#8BA87D"/>
<path d="M760 560L740 550L770 540L760 560Z" fill="#738F65"/>
<path d="M980 800C940 840 953.333 873.333 1020 900C1086.67 926.667 1096.67 960 1050 1000" stroke="#8BA87D" stroke-width="3" stroke-linecap="round"/>
<path d="M950 850C910 876.667 916.667 903.333 970 930C1023.33 956.667 1013.33 973.333 940 980" stroke="#738F65" stroke-width="2" stroke-linecap="round"/>
<path d="M1020 900L1040 890L1030 920L1020 900Z" fill="#8BA87D"/>
<path d="M970 930L990 920L980 940L970 930Z" fill="#738F65"/>
<path d="M950 850L970 840L960 860L950 850Z" fill="#8BA87D"/>
<path d="M1480 330C1440 376.667 1443.33 426.667 1490 480C1536.67 533.333 1543.33 583.333 1510 630" stroke="#738F65" stroke-width="3" stroke-linecap="round"/>
<path d="M1450 400C1410 440 1413.33 480 1460 520C1506.67 560 1496.67 586.667 1430 600" stroke="#8BA87D" stroke-width="2" stroke-linecap="round"/>
<path d="M1490 480L1510 470L1500 490L1490 480Z" fill="#738F65"/>
<path d="M1460 520L1480 510L1470 530L1460 520Z" fill="#8BA87D"/>
<path d="M1280 480C1233.33 533.333 1240 580 1300 620C1360 660 1366.67 713.333 1320 780" stroke="#8BA87D" stroke-width="4" stroke-linecap="round"/>
<path d="M1250 550C1203.33 590 1206.67 633.333 1260 680C1313.33 726.667 1300 750 1220 750" stroke="#738F65" stroke-width="3" stroke-linecap="round"/>
<path d="M1300 620L1320 610L1310 630L1300 620Z" fill="#8BA87D"/>
<path d="M1260 680L1280 670L1270 690L1260 680Z" fill="#738F65"/>
<path d="M1260 700L1240 690L1270 680L1260 700Z" fill="#8BA87D"/>
<path d="M1780 540C1733.33 600 1743.33 653.333 1810 700C1876.67 746.667 1883.33 800 1830 860" stroke="#8BA87D" stroke-width="3" stroke-linecap="round"/>
<path d="M1810 700L1830 690L1820 710L1810 700Z" fill="#8BA87D"/>
<path d="M1750 620L1770 610L1760 630L1750 620Z" fill="#8BA87D"/>
</g>
</g>
<g clip-path="url(#clip4_71_5)">
<g clip-path="url(#clip5_71_5)">
<path d="M-50 1080V500H20V550H60V450H100L120 530L70 600L150 630V1080H-50Z" fill="#EBE6DB"/>
<path d="M40 420L80 410L60 430L40 420Z" fill="#EBE6DB"/>
<path d="M50 600H20V800H50V600Z" fill="#E0D8C8"/>
<path d="M100 650H70V850H100V650Z" fill="#E0D8C8"/>
<path d="M0 520L50 560L30 580L0 520Z" fill="#E0D8C8"/>
<path d="M-20 680L80 720L40 780L-20 680Z" fill="#F4F1EA"/>
<path d="M20 620H70H20ZM20 650H70H20ZM20 680H70H20Z" fill="black"/>
<path d="M20 620H70M20 650H70M20 680H70" stroke="#BBA896" stroke-width="4"/>
<path d="M-10 680H50V780" stroke="#BBA896" stroke-width="6"/>
<path d="M300 1080V850H330V780H380L450 880L520 850V1080H300Z" fill="#E0D8C8"/>
<path d="M360 1080V950L420 880L480 950V1080H360Z" fill="#F4F1EA"/>
<path d="M370 750H360V810H370V750Z" fill="#BBA896"/>
<path d="M398.66 775L390 770L350 839.282L358.66 844.282L398.66 775Z" fill="#BBA896"/>
<path d="M380 880L420 820L460 880" stroke="#BBA896" stroke-width="8"/>
<path d="M410 800L430 820L420 840L410 800Z" fill="#BBA896"/>
<path d="M700 1080V680H730V740H780V650H880V1080H700Z" fill="#EBE6DB"/>
<path d="M800 760H700V810H800V760Z" fill="#E0D8C8"/>
<path d="M870 850H720V900H870V850Z" fill="#E0D8C8"/>
<path d="M760 650L830 550L860 580L820 650H760Z" fill="#BBA896"/>
<path d="M750 850H740V900H750V850Z" fill="#BBA896"/>
<path d="M790 850H780V900H790V850Z" fill="#BBA896"/>
<path d="M830 850H820V900H830V850Z" fill="#BBA896"/>
<path d="M1000 1080V750H1040V680H1080L1110 750H1180V1080H1000Z" fill="#EBE6DB"/>
<path d="M1040 680L1070 600L1100 620L1080 680H1040Z" fill="#E0D8C8"/>
<path d="M1060 540L1090 550L1070 580L1060 540Z" fill="#EBE6DB"/>
<path d="M1020 850L1140 820L1100 900L1020 850Z" fill="#F4F1EA"/>
<path d="M1050 900L1070 1050H1100L1050 900Z" fill="#F4F1EA"/>
<path d="M1400 1080V650H1430V580H1480L1580 660V1080H1400Z" fill="#E0D8C8"/>
<path d="M1500 700H1450V750H1500V700Z" fill="#D2C8B4"/>
<path d="M1530 780H1480V830H1530V780Z" fill="#D2C8B4"/>
<path d="M1520 580L1560 500L1590 520L1550 600L1520 580Z" fill="#D2C8B4"/>
<path d="M1580 450L1620 440L1590 480L1580 450Z" fill="#D2C8B4"/>
<path d="M1440 850L1520 830L1480 920L1410 880L1440 850Z" fill="#F4F1EA"/>
<path d="M1650 1080V400L1700 350H1750L1800 420H1850L1950 280V1080H1650Z" fill="#EBE6DB"/>
<path d="M1870 240L1920 250L1890 260L1870 240Z" fill="#EBE6DB"/>
<path d="M1720 550L1760 450H1860L1900 550L1860 650H1760L1720 550Z" fill="#E0D8C8"/>
<path d="M1750 550L1780 480H1810L1840 520L1870 550L1840 620H1780L1750 550Z" fill="#D2C8B4"/>
<path d="M1650 700L1750 720L1650 800V700Z" fill="#F4F1EA"/>
<path d="M1850 750L1950 700V850L1850 750Z" fill="#F4F1EA"/>
<path d="M0 550H10V575H0V550Z" fill="#F98B3F"/>
<path d="M800 700H830V710H800V700Z" fill="#F98B3F"/>
<path d="M1050 780H1065V810H1050V780Z" fill="#F98B3F"/>
<path d="M1500 650H1520V658H1500V650Z" fill="#F98B3F"/>
<path d="M1790 550L1810 520L1830 550L1810 580L1790 550Z" fill="#F98B3F"/>
<path d="M120 700V1080" stroke="#BBA896" stroke-width="15"/>
<path d="M-50 850H80V1080" stroke="#BBA896" stroke-width="10"/>
<path d="M720 900V1080" stroke="#BBA896" stroke-width="12"/>
<path d="M830 750V800L850 820V1080" stroke="#BBA896" stroke-width="12"/>
<path d="M1020 750V850L980 890V1080" stroke="#BBA896" stroke-width="10"/>
<path d="M1130 720V1080" stroke="#BBA896" stroke-width="15"/>
<path d="M1420 640V750L1380 790V1080" stroke="#BBA896" stroke-width="8"/>
<path d="M450 600L480 580L540 620L510 640L450 600Z" fill="#E8CDB7"/>
<path d="M1350 450L1380 410L1440 430L1410 470L1350 450Z" fill="#E8CDB7"/>
<path d="M19.9998 1080C59.9998 993.333 63.3331 916.667 29.9998 850C-3.33352 783.333 6.66648 716.667 59.9998 650C113.333 583.333 120 526.667 79.9998 480" stroke="#4D6B4F" stroke-width="6" stroke-linecap="round"/>
<path d="M50 950C96.6667 916.667 100 873.333 60 820C20 766.667 46.6667 726.667 140 700C233.333 673.333 240 613.333 160 520" stroke="#6C8B6E" stroke-width="4" stroke-linecap="round"/>
<path d="M30 850L50 830L40 860L30 850Z" fill="#4D6B4F"/>
<path d="M80 750L100 740L90 770L80 750Z" fill="#4D6B4F"/>
<path d="M140 700L160 680L150 710L140 700Z" fill="#6C8B6E"/>
<path d="M160 520L180 500L170 530L160 520Z" fill="#6C8B6E"/>
<path d="M60 650L80 640L70 670L60 650Z" fill="#4D6B4F"/>
<path d="M110 780L130 770L120 800L110 780Z" fill="#6C8B6E"/>
<path opacity="0.9" d="M40 900L70 870L90 910L50 930L40 900Z" fill="#4D6B4F"/>
<path opacity="0.9" d="M120 720L150 680L170 720L140 750L120 720Z" fill="#6C8B6E"/>
<path opacity="0.85" d="M130 550L160 520L140 580L130 550Z" fill="#6C8B6E"/>
<path d="M350 880C303.333 926.667 313.333 966.667 380 1000C446.666 1033.33 433.333 1060 340 1080" stroke="#4D6B4F" stroke-width="5" stroke-linecap="round"/>
<path d="M380 1000C426.667 1026.67 430 1053.33 390 1080" stroke="#6C8B6E" stroke-width="4" stroke-linecap="round"/>
<path d="M380 1000L400 990L390 1020L380 1000Z" fill="#4D6B4F"/>
<path d="M340 1080L360 1060L330 1070L340 1080Z" fill="#4D6B4F"/>
<path d="M420 1050L440 1040L430 1060L420 1050Z" fill="#6C8B6E"/>
<path d="M480 850C533.333 896.667 526.666 940 460 980C393.333 1020 403.333 1053.33 490 1080" stroke="#4D6B4F" stroke-width="6" stroke-linecap="round"/>
<path d="M460 980C406.666 1013.33 403.333 1046.67 450 1080" stroke="#6C8B6E" stroke-width="5" stroke-linecap="round"/>
<path d="M460 980L480 970L470 1000L460 980Z" fill="#4D6B4F"/>
<path d="M520 1050L540 1040L530 1060L520 1050Z" fill="#4D6B4F"/>
<path d="M410 1020L430 1010L420 1030L410 1020Z" fill="#6C8B6E"/>
<path d="M720 680C640 726.667 646.667 773.333 740 820C833.333 866.667 836.667 910 750 950" stroke="#6C8B6E" stroke-width="6" stroke-linecap="round"/>
<path d="M650 750C583.333 776.667 586.667 810 660 850C733.333 890 720 913.333 620 920" stroke="#4D6B4F" stroke-width="5" stroke-linecap="round"/>
<path d="M740 820L760 810L750 830L740 820Z" fill="#6C8B6E"/>
<path d="M680 890L700 880L690 900L680 890Z" fill="#6C8B6E"/>
<path d="M660 850L680 840L670 860L660 850Z" fill="#4D6B4F"/>
<path d="M620 920L600 940L630 950L620 920Z" fill="#4D6B4F"/>
<path d="M1050 1080C1096.67 993.333 1090 916.667 1030 850C970 783.333 986.666 716.667 1080 650" stroke="#4D6B4F" stroke-width="6" stroke-linecap="round"/>
<path d="M1080 950C1146.67 903.333 1150 860 1090 820C1030 780 1040 733.333 1120 680" stroke="#6C8B6E" stroke-width="5" stroke-linecap="round"/>
<path d="M1030 850L1010 840L1020 860L1030 850Z" fill="#4D6B4F"/>
<path d="M1120 780L1140 770L1130 800L1120 780Z" fill="#4D6B4F"/>
<path d="M1090 820L1110 810L1100 830L1090 820Z" fill="#6C8B6E"/>
<path d="M1160 750L1180 740L1170 770L1160 750Z" fill="#6C8B6E"/>
<path d="M1520 1080C1466.67 1013.33 1476.67 946.667 1550 880C1623.33 813.333 1626.67 746.667 1560 680C1493.33 613.333 1476.67 580 1510 580" stroke="#6C8B6E" stroke-width="5" stroke-linecap="round"/>
<path d="M1550 880C1623.33 840 1620 796.667 1540 750C1460 703.333 1480 670 1600 650" stroke="#4D6B4F" stroke-width="4" stroke-linecap="round"/>
<path d="M1550 880L1570 870L1560 890L1550 880Z" fill="#6C8B6E"/>
<path d="M1490 780L1510 770L1500 800L1490 780Z" fill="#6C8B6E"/>
<path d="M1560 680L1580 670L1570 690L1560 680Z" fill="#6C8B6E"/>
<path d="M1540 750L1560 740L1550 770L1540 750Z" fill="#4D6B4F"/>
<path d="M1750 420C1670 460 1673.33 503.333 1760 550C1846.67 596.667 1853.33 640 1780 680" stroke="#4D6B4F" stroke-width="6" stroke-linecap="round"/>
<path d="M1680 480C1613.33 506.667 1620 546.667 1700 600C1780 653.333 1763.33 680 1650 680" stroke="#6C8B6E" stroke-width="4" stroke-linecap="round"/>
<path d="M1760 550C1826.67 516.667 1866.67 526.667 1880 580C1893.33 633.334 1880 656.667 1840 650" stroke="#4D6B4F" stroke-width="4" stroke-linecap="round"/>
<path d="M1760 550L1780 540L1770 560L1760 550Z" fill="#4D6B4F"/>
<path d="M1700 620L1720 610L1710 630L1700 620Z" fill="#4D6B4F"/>
<path d="M1700 600L1720 590L1710 610L1700 600Z" fill="#6C8B6E"/>
<path d="M1620 520L1600 510L1610 530L1620 520Z" fill="#6C8B6E"/>
<path d="M1880 580L1900 570L1890 590L1880 580Z" fill="#4D6B4F"/>
</g>
</g>
<defs>
<linearGradient id="paint0_linear_71_5" x1="0" y1="0" x2="0" y2="1080" gradientUnits="userSpaceOnUse">
<stop stop-color="#FDFBF7"/>
<stop offset="0.6" stop-color="#F4EEE1"/>
<stop offset="1" stop-color="#EADECB"/>
</linearGradient>
<clipPath id="clip0_71_5">
<rect width="1920" height="1080" fill="white"/>
</clipPath>
<clipPath id="clip1_71_5">
<rect width="1920" height="1080" fill="white"/>
</clipPath>
<clipPath id="clip2_71_5">
<rect width="1920" height="1080" fill="white"/>
</clipPath>
<clipPath id="clip3_71_5">
<rect width="1920" height="1080" fill="white"/>
</clipPath>
<clipPath id="clip4_71_5">
<rect width="1920" height="1080" fill="white"/>
</clipPath>
<clipPath id="clip5_71_5">
<rect width="1920" height="1080" fill="white"/>
</clipPath>
</defs>
</svg>
