<svg width="408" height="612" viewBox="0 0 408 612" fill="none" xmlns="http://www.w3.org/2000/svg">
<path d="M175 546H198L201 562L203 563L204 546H231L263 547L280 550L281 560H286V552H296L308 555L317 560L316 568L319 569L314 575L298 580L269 585L226 588H184L139 585L110 580L99 577L90 572L87 569V563L96 557L108 553L130 549L149 547H164L166 562L167 573L170 575V560L171 547L175 546Z" fill="#C0C0C0"/>
<path d="M150 172L158 173L179 179L194 185L205 188L207 196L203 197L195 207V219L193 229L192 241L184 248L183 258L181 256L180 245L181 242V235L175 226L173 233V239L179 248L180 257L178 255L176 250L168 245V248L170 255L175 257L181 261L182 270L176 268L164 261L163 260L162 248V207L167 206L162 194V188L153 185L142 181L144 175L150 172Z" fill="#EDE1BF"/>
<path d="M197 323L198 327L190 374L189 381L181 389L178 393H176L174 397L170 402L164 407L161 412L154 418L149 423H147V414L149 391V381H147L142 365V360L143 364L149 365L148 372V377L150 378L151 379L152 383L160 390L162 391V362L164 358L167 364L168 373L169 368V359L162 344L171 341L180 335L194 327L166 326V325H197V323Z" fill="#4F5B48"/>
<path d="M142 176L143 180L155 185L162 188V193H160L158 198L155 206H164L162 207L163 260L148 259L140 265H138L139 240L140 218L141 178L142 176Z" fill="#D9C9A6"/>
<path d="M211 281L216 282L214 283V286L218 288L220 287L222 294V298H224V305L218 300L219 312L217 343L216 350L207 361H205L203 365L194 375L189 380L190 368L197 327V318H199L202 301L205 298L214 297V295L209 293L199 286V285L206 284L210 286L211 281Z" fill="#6B8364"/>
<path d="M168 122H210L209 131L208 134L212 135L209 136L206 147L204 150L205 143V135L202 132L177 131V134H179L182 138L186 148L190 157V161L194 163L199 166L202 156L203 160L204 163V188L200 183L194 172L191 166L165 155L149 150L143 148V155L141 152V146H158L156 132L154 123L168 122Z" fill="#26262A"/>
<path d="M307 269H308V282L306 327L303 364L301 390L299 416L296 449L293 491L292 500H291L290 490L287 492L288 469L294 387L296 351L300 296L302 272L307 269Z" fill="#474653"/>
<path d="M188 439L190 443L194 454L195 485L200 525L202 541V550L199 554L198 552V546H172V531H173V545H196L191 524L184 495L180 479L178 478L179 470L185 442L188 439Z" fill="#282931"/>
<path d="M218 312L220 316L226 344L230 356V358H233L232 349L234 352L236 362L238 379L234 384L228 389L223 394L214 403L212 405V389L214 380L215 371V350L216 343L218 312Z" fill="#2E342C"/>
<path d="M140 182H141V218L139 256V266L126 276L120 280V271L122 256L128 229L131 214L135 199L140 182Z" fill="#B2A586"/>
<path d="M284 16L290 18L298 25V27L302 29V31L306 33V53L304 84L303 92L300 90L291 60L286 44L284 26V16Z" fill="#738B68"/>
<path d="M153 441H154L155 446L158 448V450H160V452L163 453L165 458L168 459V545L166 548L159 547L163 546L160 517L158 494L153 450V441Z" fill="#302F38"/>
<path d="M185 103H199L197 110H199L205 122L168 123H141L145 118L151 115L158 110V108L185 103Z" fill="#EBDEBC"/>
<path d="M286 248H287L290 263L270 271L253 277L248 279L241 278L240 273L236 264V262L256 258L265 256L281 253H284L286 248Z" fill="#3D483A"/>
<path d="M198 234L203 236L215 245L217 246L219 241L221 243V250L218 260L211 284L210 286L204 284L202 274L201 256L198 239V234Z" fill="#EBDFBE"/>
<path d="M143 148L152 150L165 154L171 166L174 174V177L165 176L155 173L148 174L144 176V173L146 168L143 157V148Z" fill="#53604C"/>
<path d="M195 218L197 222L199 234L200 245L202 256L203 274L204 283L190 276L187 273L189 259L190 255L189 253V242L191 241L193 223L195 218Z" fill="#D8CAA8"/>
<path d="M214 351L216 353V371L214 384L211 397L202 413V424H196L199 417V411L197 408L198 400L203 378L209 362V358L214 351Z" fill="#41434E"/>
<path d="M168 461L170 464L177 478L178 482L174 523L172 546H168V461Z" fill="#474754"/>
<path d="M166 155L175 158L191 165L200 180L203 186V188L194 186L176 179L172 177H174L166 157V155Z" fill="#738A69"/>
<path d="M144 289L146 293L150 312L153 333V340L147 342L145 344L141 328L138 314L136 305V297L141 290L144 289Z" fill="#51604B"/>
<path d="M177 131H200L196 135V145L199 148L204 147V156H202L200 167L193 163L190 161L186 150L182 142L180 137L179 134H177V131Z" fill="#484451"/>
<path d="M180 433L182 436L184 441L186 440L181 466L178 478L176 479L168 461L170 435L175 437L176 439H180V433Z" fill="#708667"/>
<path d="M172 265L187 273L202 282V283L195 284H185L184 283L166 282L165 305H163L162 307H160V299L164 284V272L169 270L170 267L172 265Z" fill="#232225"/>
<path d="M181 84L186 85L192 89L188 91L193 102L169 107L165 106L167 103L160 101L162 100L164 95L175 88L181 84Z" fill="#5C6D54"/>
<path d="M150 280L154 282L156 298L159 333V338L156 340H153L149 312L144 287L150 280Z" fill="#71886B"/>
<path d="M301 93L304 94L305 97V104L303 108V112L308 114L309 119H311L313 130L319 143L320 150L313 152L306 140L302 133L300 130L299 125H297V123H302L301 117V93Z" fill="#474655"/>
<path d="M289 243V246L288 251L286 249L284 253L265 257L256 259L240 262L236 261L242 249L270 247L287 245L289 243Z" fill="#768D6D"/>
<path d="M160 424L167 425L171 429L172 427L175 436L170 432V450L169 459L165 458L162 453L160 452V450H158L156 447L154 448V439L160 424Z" fill="#424E3F"/>
<path d="M198 433L204 438H211L212 436L211 441L209 445L205 466L203 478H200L194 457V450L197 439L198 433Z" fill="#5B6B55"/>
<path d="M161 323L166 325L196 326L192 329L175 339L167 344H162L159 339V327L161 323Z" fill="#2D3529"/>
<path d="M332 74H333V102L328 106H322L323 111L313 119H309L310 104L312 95H313L314 101V105L315 108L323 92L331 76L332 74Z" fill="#5B6C53"/>
<path d="M198 104L206 105L219 109L224 114L227 116L226 118L230 120L228 123H215L205 122L200 114L199 110H197V105L198 104Z" fill="#F6EECD"/>
<path d="M167 290H173V291L182 292L189 304L192 309H182L179 306L176 305V309H164L165 291L167 290Z" fill="#D8C7A3"/>
<path d="M135 268H138L137 283L131 288L125 295L119 299H116L117 286L119 275L121 279L131 271L135 268Z" fill="#505C49"/>
<path d="M208 358L211 359L205 376L201 390L197 408L192 409L191 406V397L196 378V372L204 363L205 361H207L208 358Z" fill="#1E2027"/>
<path d="M332 72L333 74L325 90L317 106L314 109L312 102L313 100V86L315 79L325 74L332 72Z" fill="#728868"/>
<path d="M278 143H297V170L296 191H295L294 164L293 157L290 156H279L278 152V143Z" fill="#ECE1C0"/>
<path d="M277 38H278V46L277 48L279 47H287L290 54L296 73L295 76L293 75V84L290 80L285 67L277 51L276 49L277 38Z" fill="#4D5B46"/>
<path d="M148 258L159 259L164 260L159 265L145 277L139 282H137V272L138 268L136 267L148 258Z" fill="#748867"/>
<path d="M157 338L158 340L155 366L143 364V353L146 342L152 340L157 338Z" fill="#CCBE9E"/>
<path d="M195 373L197 374L196 383L191 400L190 397L185 401L174 415L170 411L172 406L177 400H179L181 396L186 390L187 382L195 373Z" fill="#3A3D46"/>
<path d="M186 383H188L187 390L179 400L174 405L171 409L173 416L164 419L169 421L171 425V429L167 427V425L161 424L162 418L163 415V407L168 402H170L172 398L176 393L181 388L186 383Z" fill="#1F2427"/>
<path d="M167 311H173L174 313L181 312L182 311H187L191 322V323H163L164 312L167 311Z" fill="#AAA07C"/>
<path d="M277 158H280V169L283 176L286 187V190L281 195L278 196L275 195L274 199V174L276 168L277 158Z" fill="#C7B491"/>
<path d="M301 265L304 266V269H306V267L312 266L310 267L309 285L308 295H307V270L302 272L301 296L299 310L297 306L295 336H294V317L297 280V266L300 267L301 265Z" fill="#1F1F26"/>
<path d="M290 506H291V517L288 547L287 551L291 552H286V560L281 561L280 560V550L282 554L283 546V533H282V516L283 511L286 512V524H289V514L290 506Z" fill="#3B3A44"/>
<path d="M306 182H315L320 185L323 190V192L318 195L314 198L305 197L303 194V189L301 188L303 184L306 182Z" fill="#566553"/>
<path d="M312 202L314 203V239L309 241L308 236L305 235L308 205L312 202Z" fill="#464450"/>
<path d="M178 243L181 245L182 256L183 248L188 243H190V253L184 260L186 273L181 271L180 261L170 255L166 244L172 246L177 250L179 254L177 245L178 243Z" fill="#808F6A"/>
<path d="M195 472H197L199 479L201 480L202 491V538L200 534L197 510L195 494V472Z" fill="#4A4A57"/>
<path d="M125 121L127 122L126 123H154V133L150 135L141 134L123 126L124 122L125 121Z" fill="#92846A"/>
<path d="M296 170H297L298 191L297 198L294 199V197L291 196L287 191L284 182L287 176V173L295 171L296 170Z" fill="#C9BFA3"/>
<path d="M282 12L286 14L288 17L284 16L287 47L277 48L278 30L282 12Z" fill="#52644C"/>
<path d="M190 90L196 91L208 100L218 107L221 110L214 108L199 104L190 103L192 101L188 94V91L190 90Z" fill="#728466"/>
<path d="M217 261L219 263L224 276L227 280H228V286L220 280L223 293V298L221 294L219 289L214 286V283L212 282L213 274L216 262L217 261Z" fill="#3A3C35"/>
<path d="M230 255H232L239 268L243 279L238 278L234 276L228 275V280H227L226 275V267L229 256L230 255Z" fill="#222428"/>
<path d="M146 275L150 277V279L156 278L157 279V285L152 281L148 283L144 290H141L139 294L136 301L134 297L132 289L130 288L143 277L146 275Z" fill="#2C362C"/>
<path d="M314 239L320 240V255L315 265L304 264L301 261L302 251L306 249H309V256L315 254H319L318 246L319 241L314 240V239Z" fill="#9C9078"/>
<path d="M188 397H190L193 411L192 415L190 406H188L186 410L177 422H170L172 417L180 406L188 397Z" fill="#708667"/>
<path d="M277 100L281 101L283 100L288 103L290 109L289 115L291 116L290 119H288L282 112L270 114V111H272V107L276 104L277 100Z" fill="#77906C"/>
<path d="M288 459H289L288 484L286 512L284 516H282V502L285 464L288 459Z" fill="#28272E"/>
<path d="M158 338L161 341L167 353L166 356L163 357L162 365L161 366H155V355L157 340L158 338Z" fill="#F2E7C5"/>
<path d="M271 104H272V111H270V114L279 111L283 112L288 117V119L292 121L297 127L287 125L275 119L270 117L269 116L270 107L271 104Z" fill="#445040"/>
<path d="M298 237H300L307 246L311 248V249L302 251L303 244L301 243L300 247L299 265H293L289 262L288 253H295L297 249L298 237Z" fill="#978C6F"/>
<path d="M177 421L179 422L190 423L194 426L188 437L183 442L177 423V421Z" fill="#D2C5A4"/>
<path d="M188 406H190L195 423V425L179 423L178 420L186 409L188 406Z" fill="#ECE5C5"/>
<path d="M168 289H198L200 291V298H199L198 293L196 296L193 314V323L195 325H165L164 323L190 322L187 315V311L192 310L194 294L196 291L168 290V289Z" fill="#968E72"/>
<path d="M213 407L215 410L217 420V427L213 435L211 438H207L203 425L204 421L205 423L216 424L215 422L213 423L212 415L213 411V407Z" fill="#AFA48A"/>
<path d="M173 290H197L195 294L193 307L191 308L182 294V292H172L173 290Z" fill="#F2E8C5"/>
<path d="M149 365L154 366L159 384L162 391L157 389L150 382V380L148 379V377L147 366L149 365Z" fill="#9A8E70"/>
<path d="M203 228L211 234L215 236L218 233L219 235V242L217 246L212 244L198 233V231L203 228Z" fill="#758862"/>
<path d="M154 108L160 109L155 113L148 118L143 121L142 122L147 123V124H140L139 120L136 119L140 111L141 110L154 108Z" fill="#D2C4A1"/>
<path d="M319 145L322 148V156L319 173H318V168H312V158L313 152L320 150L319 145Z" fill="#2F2F39"/>
<path d="M166 282H184L185 285L194 288V289L168 290H165L166 282Z" fill="#2E362C"/>
<path d="M162 261L167 262L172 265L171 268L169 271L165 272L163 275L161 271L158 276L155 275L154 268L162 261Z" fill="#1E2125"/>
<path d="M194 408L199 409L200 411V417L197 424L204 437L203 439L199 434V432L192 431L193 426L194 423L192 409L194 408Z" fill="#2F362E"/>
<path d="M296 232H298V234L308 236L311 247L306 246L300 239V237H298L297 242L294 243L293 246L290 245V240L296 232Z" fill="#CCC1A6"/>
<path d="M290 489H291V506L289 524H286L285 526L286 499L287 492L290 489Z" fill="#514F5B"/>
<path d="M232 247L236 249L253 247H270V248L260 249H242L241 254L236 263L233 259L232 255L229 256L231 248L232 247Z" fill="#303637"/>
<path d="M210 122L225 123L223 124L222 129L220 131L219 133L216 134H208L210 122Z" fill="#90866C"/>
<path d="M312 239L319 241V254L309 256V249L310 246L309 241L312 239Z" fill="#E3D7B9"/>
<path d="M197 204L199 208L198 210H200L203 224V229L201 231H198L194 214V207L197 204Z" fill="#728662"/>
<path d="M305 53H306V74L304 94L300 93V91L297 92L294 89L292 78L293 75L297 77L301 90L302 91L304 70L305 53Z" fill="#3F4C3B"/>
<path d="M291 369H292V392H293V416L291 419L290 418L289 430H288V416L291 369Z" fill="#1F1E25"/>
<path d="M297 304H300L299 323L298 340L295 348H294V336L296 306L297 304Z" fill="#35353D"/>
<path d="M201 290L206 292L212 294L214 295V297L203 299L200 318L198 321V307L200 291L201 290Z" fill="#49573F"/>
<path d="M201 493H202L204 536V545H243L254 546V547H231L203 546L201 541V493Z" fill="#222226"/>
<path d="M221 249L223 253L227 275V282L224 278L219 267L217 260L220 250L221 249Z" fill="#DDD6B9"/>
<path d="M174 225L178 229L182 235V242L181 244L176 245L172 239L173 229L174 225Z" fill="#748762"/>
<path d="M161 97L163 98L162 101L167 103L165 107L148 110H143L147 106L157 100L161 97Z" fill="#56604A"/>
<path d="M207 208L211 209L214 208L216 223V229L212 230L206 225L204 217V212L207 208ZM207 213L208 221L209 224L214 226V219L213 214L207 213Z" fill="#D29B51"/>
<path d="M161 365H162V390L160 388L156 378L154 366L161 365Z" fill="#C6B899"/>
<path d="M206 192L208 193L213 206L212 208L208 204L204 206L201 210H198V202L204 195L206 194V192Z" fill="#677759"/>
<path d="M312 168H318V183L307 182V177L310 175L312 168Z" fill="#3F4049"/>
<path d="M211 406L213 407L214 414L213 416L214 422L216 421V424H205L204 419L211 406Z" fill="#EAE5C2"/>
<path d="M310 149L313 150L312 171L311 176L308 177L307 182H306L307 164L309 151L310 149Z" fill="#202127"/>
<path d="M211 395H212L213 407L209 411L203 423L201 419V413L207 402L211 395Z" fill="#687961"/>
<path d="M281 155H290L293 157L295 164L294 172L288 174L289 176L287 177L285 182L283 180L281 170L286 172L290 169H292L291 160L287 157L279 158V156L281 155Z" fill="#F5DEB2"/>
<path d="M296 91H300L301 93L302 123H297V104L296 91Z" fill="#24252B"/>
<path d="M226 315L228 319L230 331V340L228 346H226L222 330L223 328L226 325V315Z" fill="#C4BCA3"/>
<path d="M300 187L302 188L305 197H309V205L307 210L305 211L303 234H298L302 233V221L304 198L299 191L300 187Z" fill="#1A1B1E"/>
<path d="M275 138L297 139V143H277L276 152L274 149V141L275 138Z" fill="#C2B493"/>
<path d="M206 203L210 205L212 207L211 210L207 208L205 212L206 220L208 227L203 226L200 214L201 209L206 203Z" fill="#EBE0B7"/>
<path d="M301 243L304 244L302 262L314 265V266H309L308 268L306 267V269H304V266L301 267L299 269V266L295 265H299V247L301 243Z" fill="#312B27"/>
<path d="M153 269L155 272L159 281L160 291V312L158 314L157 286L156 279H150L147 276L148 273L153 269Z" fill="#1A1C20"/>
<path d="M163 304H164V324L161 325L159 333H158V314L160 307H162L163 304Z" fill="#394031"/>
<path d="M160 193L163 194L168 207L155 206L158 196L160 193Z" fill="#DE9E4F"/>
<path d="M273 152H274L275 195L279 196L278 200L276 201L275 204H272V169L273 152Z" fill="#5C554B"/>
<path d="M298 130L300 131L301 136L275 137L274 142H268L266 140L267 136L268 135L285 134H297L299 135L298 130Z" fill="#1E1C1B"/>
<path d="M215 215H216L218 222L221 227L226 236V239L221 238V241H219L215 223V215Z" fill="#9C8B73"/>
<path d="M202 282L205 285L200 286L210 293L207 294L203 291L198 290L185 286L184 284L202 282Z" fill="#3B4736"/>
<path d="M295 241H298V249L295 254L287 253L288 246L292 244L293 243L295 241Z" fill="#E3D6B3"/>
<path d="M176 305L180 306V308L192 309L189 311L182 312L179 314H174L173 311L164 312V309H176V305Z" fill="#B38F57"/>
<path d="M219 311L224 312L226 314L227 325L223 329L220 321L219 311Z" fill="#E9E1C5"/>
<path d="M283 156L288 157L292 160V169L285 173L279 169V160L283 156ZM284 159L281 160V168L286 170L290 167V161L287 159H284Z" fill="#DBA257"/>
<path d="M138 112L140 113L137 119L139 120L140 124H125L129 118L138 112Z" fill="#B4A78B"/>
<path d="M221 110L225 112L236 120V122L240 124V125H230L225 124L229 120L226 118V116L221 111V110Z" fill="#B9B49C"/>
<path d="M294 365H295V387L294 400H293L292 393H291L292 368L294 365Z" fill="#32313B"/>
<path d="M281 525H282L283 531H284V546L283 555L281 554V550H273V549H280V536L281 525Z" fill="#27252E"/>
<path d="M293 341H294L295 346L297 342L296 368L294 366L292 368V354L293 341Z" fill="#27262E"/>
<path d="M307 209H308V218L306 235H301L303 234L304 211L307 209Z" fill="#302E38"/>
<path d="M200 134L204 136V144L202 147L198 146L196 144V135L200 134Z" fill="#F1B146"/>
<path d="M154 283L158 286V323H157L154 290V283Z" fill="#3B4349"/>
<path d="M194 457L196 460L200 474V478H202V488H201V480L198 479L197 472H195V485H194L193 458L194 457Z" fill="#383E42"/>
<path d="M277 143H278L279 158H277V168L275 174H274V149H276L277 143Z" fill="#CDBEA0"/>
<path d="M236 121L240 122L241 126L221 132L219 131V129L222 127L223 124H239L236 121Z" fill="#6C6553"/>
<path d="M170 545L175 546L171 547V560L170 575L166 573V571H168V546L170 545Z" fill="#505059"/>
<path d="M190 433H193L195 450L193 454L188 440H186L188 435L190 433Z" fill="#374034"/>
<path d="M175 422L178 423L180 430V439L176 440L170 435V432L173 433L174 434L175 431L177 429L175 428V422Z" fill="#6B7B5D"/>
<path d="M198 292H199V307L198 318H197L196 310L193 311L195 296L198 292Z" fill="#D6CCAE"/>
<path d="M290 416L292 419L291 443L288 447V430L289 418L290 416Z" fill="#373640"/>
<path d="M189 254L191 255L188 273H186L183 263L184 259L189 254Z" fill="#E7E0BE"/>
<path d="M304 139L307 140L311 147L309 154L307 151L304 142H298V165H297V141H304V139Z" fill="#171518"/>
<path d="M168 416H173L171 421L175 422L176 425L175 428L178 429L175 432H173L169 423V421L163 420L166 417L168 416Z" fill="#596B55"/>
<path d="M284 159L289 160L290 161V167L285 170L281 168V160L284 159Z" fill="#F3B84C"/>
<path d="M230 336H231L233 353V358H230L226 346H228V341L230 336Z" fill="#C9C2AA"/>
<path d="M274 94L279 95L284 99L283 101L280 102L278 101L275 106L272 107V101L274 94Z" fill="#5D6D57"/>
<path d="M287 430H288L289 445H290V456L287 461H286V440L287 430Z" fill="#212027"/>
<path d="M202 423L204 425L207 435L206 440L202 436L197 426V424L202 423Z" fill="#6D795D"/>
<path d="M321 192V195L317 199L315 216H314L313 203L309 204V197H314L318 193H320L321 192Z" fill="#292B2F"/>
<path d="M289 105L291 107L297 119L298 127L291 121L289 115V105Z" fill="#667460"/>
<path d="M299 124H300L302 132L306 137V139H304V141H297V136H301L298 130L293 127L295 126L298 127L299 124Z" fill="#333338"/>
<path d="M166 355H168L170 359V368L169 374L167 373L166 364L164 360L162 362V357L166 355Z" fill="#D9D1B3"/>
<path d="M203 226L211 228L215 229L217 228V234L214 237L204 229L203 226Z" fill="#ECE1B8"/>
<path d="M304 92L306 96L308 106V110H310L309 116L308 114L302 112L303 107L304 104V92Z" fill="#32313A"/>
<path d="M167 545H168V571H166L164 548L167 545Z" fill="#363640"/>
<path d="M331 71H334V103L329 107L325 110H323L322 106L330 104V102H333L332 73L327 74L331 71Z" fill="#373F34"/>
<path d="M196 309H197V325L192 323V314L194 310L196 309Z" fill="#E3D8B7"/>
<path d="M227 239L231 244L232 248L229 258L227 256L225 250L222 253L221 247H230L227 243V239Z" fill="#636E57"/>
<path d="M274 136H297L298 139H276L274 136Z" fill="#F3E8D1"/>
<path d="M311 557L316 558L318 559V561L322 562L323 567L320 572L316 573L318 569L316 568L317 560L311 558V557Z" fill="#818181"/>
<path d="M202 542L204 546V564L200 562L199 554L201 550L202 542Z" fill="#3B3B3E"/>
<path d="M217 299L224 305L226 311L225 314L221 312L218 309L217 299Z" fill="#D0CBB0"/>
<path d="M224 248L226 250L229 259L226 271H225L223 259V252L224 248Z" fill="#515A44"/>
<path d="M200 131L204 133L206 135V143L203 148L199 149L195 145V135L200 131ZM200 134L196 135V144L199 147L203 146L204 144V136L200 134Z" fill="#C18C50"/>
<path d="M191 430L199 432L196 448L194 447L193 433L190 432L191 430Z" fill="#434D3D"/>
<path d="M224 237L227 239L229 244L230 247H221L220 241L221 238L224 237Z" fill="#BCB397"/>
<path d="M207 213L213 214L214 219V226L209 224L207 218V213Z" fill="#F3B541"/>
<path d="M154 125L156 129L158 139L150 138L144 135L148 134L153 133V127L154 125Z" fill="#7A7261"/>
</svg>
