<svg width="1200" height="430" viewBox="0 0 1200 430" fill="none" xmlns="http://www.w3.org/2000/svg">
<g opacity="0.98">
<path d="M631.18 76L600 94L568.82 76V40L600 22L631.18 40V76Z" stroke="#F4FFF6" stroke-width="8"/>
<path d="M612.12 65L600 72L587.88 65V51L600 44L612.12 51V65Z" fill="#F4FFF6"/>
<path d="M410 58H535" stroke="#F4FFF6" stroke-width="3"/>
<path d="M665 58H790" stroke="#F4FFF6" stroke-width="3"/>
<path d="M534.76 60.75L530 63.5L525.24 60.75V55.25L530 52.5L534.76 55.25V60.75Z" fill="#F4FFF6"/>
<path d="M673.76 60.75L669 63.5L664.24 60.75V55.25L669 52.5L673.76 55.25V60.75Z" fill="#F4FFF6"/>
<path d="M243 115.5H173.7L154.8 134.4V201.6L173.7 220.5H243" stroke="#F4FFF6" stroke-width="8.925"/>
<path d="M304.95 115.5H357.45" stroke="#F4FFF6" stroke-width="8.925"/>
<path d="M331.2 115.5V220.5" stroke="#F4FFF6" stroke-width="8.925"/>
<path d="M304.95 220.5H357.45" stroke="#F4FFF6" stroke-width="8.925"/>
<path d="M423.6 115.5H507.6" stroke="#F4FFF6" stroke-width="8.925"/>
<path d="M465.6 115.5V220.5" stroke="#F4FFF6" stroke-width="8.925"/>
<path d="M558 220.5L600 115.5L642 220.5" stroke="#F4FFF6" stroke-width="8.925"/>
<path d="M573.75 180.6H626.25" stroke="#F4FFF6" stroke-width="8.925"/>
<path d="M694.5 115.5H749.1L776.4 142.8V193.2L749.1 220.5H694.5V115.5Z" stroke="#F4FFF6" stroke-width="8.925"/>
<path d="M912.9 115.5H828.9V220.5H912.9" stroke="#F4FFF6" stroke-width="8.925"/>
<path d="M828.9 168H894" stroke="#F4FFF6" stroke-width="8.925"/>
<path d="M963.3 115.5V220.5H1047.3" stroke="#F4FFF6" stroke-width="8.925"/>
<path d="M250 260H520" stroke="#F4FFF6" stroke-width="4"/>
<path d="M680 260H950" stroke="#F4FFF6" stroke-width="4"/>
<path d="M524.76 262.75L520 265.5L515.24 262.75V257.25L520 254.5L524.76 257.25V262.75Z" fill="#F4FFF6"/>
<path d="M684.76 262.75L680 265.5L675.24 262.75V257.25L680 254.5L684.76 257.25V262.75Z" fill="#F4FFF6"/>
<path d="M564.74 236.3H583.66L592.26 244.9V270.7L583.66 279.3H564.74L556.14 270.7V244.9L564.74 236.3Z" stroke="#F4FFF6" stroke-width="4.3"/>
<path d="M609.46 279.3V236.3H643.86" stroke="#F4FFF6" stroke-width="4.3"/>
<path d="M609.46 257.8H636.98" stroke="#F4FFF6" stroke-width="4.3"/>
<path d="M258.88 298.4H217.92L206.4 309.92V324L217.92 330.4H247.36L258.88 341.92V350.88L247.36 362.4H206.4" stroke="#F4FFF6" stroke-width="5.888"/>
<path d="M297.28 298.4H325.44L338.24 311.2V349.6L325.44 362.4H297.28L284.48 349.6V311.2L297.28 298.4Z" stroke="#F4FFF6" stroke-width="5.888"/>
<path d="M366.4 298.4V362.4H417.6" stroke="#F4FFF6" stroke-width="5.888"/>
<path d="M444.48 362.4L470.08 298.4L495.68 362.4" stroke="#F4FFF6" stroke-width="5.888"/>
<path d="M454.08 338.08H486.08" stroke="#F4FFF6" stroke-width="5.888"/>
<path d="M525.12 362.4V298.4H558.4L575.04 315.04V326.56L559.68 340.64H525.12" stroke="#F4FFF6" stroke-width="5.888"/>
<path d="M552.64 340.64L576.32 362.4" stroke="#F4FFF6" stroke-width="5.888"/>
<path d="M677.44 298.4H636.48L624.96 309.92V324L636.48 330.4H665.92L677.44 341.92V350.88L665.92 362.4H624.96" stroke="#F4FFF6" stroke-width="5.888"/>
<path d="M715.84 298.4H744L756.8 311.2V349.6L744 362.4H715.84L703.04 349.6V311.2L715.84 298.4Z" stroke="#F4FFF6" stroke-width="5.888"/>
<path d="M783.68 298.4V348.32L797.76 362.4H820.8L834.88 348.32V298.4" stroke="#F4FFF6" stroke-width="5.888"/>
<path d="M864.32 298.4V362.4H915.52" stroke="#F4FFF6" stroke-width="5.888"/>
<path d="M994.88 298.4H953.92L942.4 309.92V324L953.92 330.4H983.36L994.88 341.92V350.88L983.36 362.4H942.4" stroke="#F4FFF6" stroke-width="5.888"/>
</g>
</svg>
