<svg width="843" height="1392" viewBox="0 0 843 1392" fill="none" xmlns="http://www.w3.org/2000/svg">
<ellipse cx="554.596" cy="1283.04" rx="209.351" ry="59.9894" fill="#D9D9D9"/>
<path d="M453.074 767.75L497.339 728.065L530.919 728.065L572.131 767.473L503.444 834.148L453.074 767.75Z" fill="#242434"/>
<path d="M503.444 834.148L509.55 728.065H497.339L453.074 767.751L503.444 834.148Z" fill="#3B3D54"/>
<path d="M354.934 760.668L387.44 499.108L443.916 563.979L354.934 760.668Z" fill="#E6E5E5"/>
<path d="M397.093 429.293L430.636 496.81L610.592 488.575L608.294 330.61L424.187 314.506L397.093 429.293Z" fill="#B3622E"/>
<path d="M424.171 369.789L436.699 456.534L478.552 480.958L544.949 456.534L556.397 407.692L544.949 343.584L504.499 316.042L442.192 333.094L424.171 369.789Z" fill="#EEC89F"/>
<path d="M610.583 489.353L612.11 328.32L538.346 282.726L472.668 276.145L424.418 315.094L396.69 429.593L424.418 483.3L424.418 375.12L492.929 326.986L538.346 355.031L568.183 466.421L610.583 489.353Z" fill="#DA8536"/>
<rect width="30.5276" height="15.2638" transform="matrix(-1 0 0 1 506.027 381.743)" fill="#242434"/>
<rect width="21.3693" height="15.2638" transform="matrix(-1 0 0 1 454.129 381.743)" fill="#242434"/>
<path d="M587.394 505.214L611.817 583.815L530.919 726.053H497.338L414.914 583.815L439.336 505.214H587.394Z" fill="#F0F0F0"/>
<path d="M573.657 573.483V505.214H439.336L414.914 583.059L452.31 591.454H498.102L573.657 573.483Z" fill="#FAFAFA"/>
<path d="M473.679 506.254H515.655L498.101 591.731L515.655 726.052H497.338L453.073 591.731L473.679 506.254Z" fill="#B3622E"/>
<path d="M477.495 578.48L498.102 591.454L477.495 607.481L453.837 591.454L477.495 578.48Z" fill="#FFFFCE"/>
<path d="M572.131 801.331L694.242 892.151L641.582 1283.67L572.131 801.331Z" fill="#212531"/>
<path d="M649.977 1010.45L645.397 855.518L572.131 801.332L604.185 1024.18L649.977 1010.45Z" fill="#3B3D54"/>
<path d="M649.977 1046.31L606.475 1039.45L641.581 1289.77L649.977 1046.31Z" fill="#3B3D54"/>
<path d="M660.661 912.757H680.504L677.451 956.259H659.135L660.661 912.757Z" fill="#F6F4CB"/>
<path d="M672.109 1003.58L676.688 960.075H659.135L657.608 1003.58H672.109Z" fill="#F6F4CB"/>
<path d="M657.608 1007.39H672.109L667.53 1049.37H655.319L657.608 1007.39Z" fill="#F6F4CB"/>
<path d="M655.319 1053.18H667.53L664.477 1092.11H653.793L655.319 1053.18Z" fill="#F6F4CB"/>
<path d="M371.413 795.226L485.128 906.651L445.442 1283.67L371.413 795.226Z" fill="#1D1E2A"/>
<path d="M436.284 858.57L371.413 795.226L405.756 1023.42L443.916 1018.08L436.284 858.57Z" fill="#2E3042"/>
<path d="M439.337 1054.71L409.572 1047.84L445.442 1283.67L439.337 1054.71Z" fill="#2E3042"/>
<path d="M735.454 847.133L661.101 489.163L577.474 557.111L735.454 847.133Z" fill="#FAFAFA"/>
<path d="M598.616 78.3535V183.642L507.434 236.285L416.252 183.642V78.3535L507.434 25.71L598.616 78.3535ZM441.642 92.5674V167.321L506.381 204.699L571.121 167.321V92.5674L506.381 55.1904L441.642 92.5674Z" fill="#EAC435"/>
<path d="M507.434 78.354L553.025 104.676V157.32L507.434 183.642L461.843 157.32V104.676L507.434 78.354Z" fill="#EAC435"/>
<path d="M400.338 171.398L351.367 200.781V274.237H47.7467L0 226.491V40.4011L47.7467 0H351.367V144.464L400.338 171.398Z" fill="#F0F0F0"/>
<path d="M39.5393 80.3992C42.0261 80.6797 44.0602 81.5852 45.6415 83.1155C47.3249 84.7479 48.1666 86.7501 48.1666 89.1221V89.1795C48.1666 91.6025 47.3377 93.6366 45.6798 95.2817C44.0092 96.9396 41.9751 97.7686 39.5776 97.7686C37.1545 97.7686 35.1204 96.9396 33.4753 95.2817C31.7919 93.5729 30.9502 91.5643 30.9502 89.256V89.0073L34.0109 87.6683V89.3134C34.0109 90.8438 34.5593 92.1445 35.656 93.2158C36.7528 94.2998 38.06 94.8418 39.5776 94.8418C41.1206 94.8418 42.4342 94.2998 43.5182 93.2158C44.6022 92.119 45.1442 90.8119 45.1442 89.2943C45.1442 87.7002 44.6213 86.4058 43.5756 85.411C42.3768 84.276 41.0696 83.6575 39.6541 83.5555C37.231 83.3642 35.3309 82.5799 33.9535 81.2026C32.5252 79.787 31.8111 78.0781 31.8111 76.0759C31.8111 74.061 32.5125 72.3585 33.9153 70.9684C35.3181 69.5656 37.0142 68.8642 39.0037 68.8642C41.0186 68.8642 42.7211 69.5656 44.1112 70.9684C45.5268 72.3967 46.2345 74.0929 46.2345 76.0568V76.2481L43.1739 77.6254V76.1142C43.1484 74.9282 42.7403 73.9462 41.9496 73.1683C41.1206 72.3521 40.1387 71.944 39.0037 71.944C37.8687 71.944 36.9058 72.3394 36.1152 73.13C35.299 73.959 34.8909 74.9409 34.8909 76.0759C34.8909 77.2109 35.299 78.1865 36.1152 79.0027C36.8803 79.7679 38.0217 80.2334 39.5393 80.3992ZM70.1844 77.3767C70.1844 77.3767 70.1844 81.3365 70.1844 89.256C70.1844 91.6025 69.3427 93.6111 67.6593 95.2817C65.976 96.9396 63.9419 97.7686 61.5571 97.7686C59.1596 97.7686 57.1255 96.9396 55.4549 95.2817C53.7715 93.6111 52.9298 91.6025 52.9298 89.256V77.3767C52.9298 75.0302 53.7715 73.028 55.4549 71.3701C57.1382 69.6995 59.1723 68.8642 61.5571 68.8642C63.9419 68.8642 65.976 69.6995 67.6593 71.3701C69.3427 73.028 70.1844 75.0302 70.1844 77.3767ZM55.9905 77.3193V89.3134C55.9905 90.831 56.5325 92.1318 57.6165 93.2158C58.7005 94.2998 60.014 94.8418 61.5571 94.8418C63.0747 94.8418 64.3819 94.2998 65.4786 93.2158C66.5626 92.1445 67.111 90.8438 67.1237 89.3134V77.3193C67.111 75.789 66.5626 74.4882 65.4786 73.417C64.3819 72.333 63.0747 71.791 61.5571 71.791C60.014 71.791 58.7005 72.333 57.6165 73.417C56.5325 74.4882 55.9905 75.789 55.9905 77.3193ZM82.0254 97.7686V89.0073C80.2911 88.714 78.7671 87.9233 77.4535 86.6353C75.7702 84.9647 74.9285 82.9561 74.9285 80.6096V70.2032L77.9892 68.8642V80.667C78.0019 82.1973 78.5503 83.4981 79.6343 84.5693C80.731 85.6533 82.0382 86.1953 83.5558 86.1953C85.0861 86.1953 86.3997 85.6533 87.4964 84.5693C88.5804 83.4981 89.1224 82.2164 89.1224 80.7244V80.667V70.2032L92.1831 68.8642V80.6096C92.1831 82.9561 91.3414 84.9647 89.658 86.6353C88.3445 87.9233 86.8205 88.714 85.0861 89.0073V96.4295L82.0254 97.7686ZM126.023 97.7686V72.3075H117.415L118.754 69.2468H137.692L136.353 72.3075H129.083V96.4295L126.023 97.7686ZM140.925 89.256V70.2032L143.985 68.8642V89.3134C143.998 90.8438 144.546 92.1445 145.63 93.2158C146.727 94.2998 148.034 94.8418 149.552 94.8418C151.082 94.8418 152.396 94.2998 153.492 93.2158C154.576 92.1445 155.118 90.8629 155.118 89.3708C155.118 89.3453 155.118 89.3262 155.118 89.3134V70.2032L158.179 68.8642V89.256C158.179 91.6025 157.337 93.6111 155.654 95.2817C153.971 96.9396 151.937 97.7686 149.552 97.7686C147.167 97.7686 145.133 96.9396 143.45 95.2817C141.766 93.6111 140.925 91.6025 140.925 89.256ZM184.922 97.7686V70.2032L187.983 68.8642V81.7956H199.116V70.2032L202.177 68.8642V96.4295L199.116 97.7686V84.8563H187.983V96.4295L184.922 97.7686ZM211.512 84.8563V94.3253H225.132L223.793 97.386H208.451V70.5667L211.512 69.2277L222.645 69.2468L221.306 72.3075H211.512V81.7956H222.645L221.306 84.8563H211.512ZM228.651 97.7686V74.0674C228.651 72.639 229.162 71.4148 230.182 70.3945C231.202 69.3743 232.433 68.8642 233.874 68.8642C235.366 68.8642 236.596 69.3616 237.566 70.3563C238.586 69.3616 239.81 68.8642 241.239 68.8642C242.769 68.8642 244.012 69.3616 244.969 70.3563C245.938 71.3638 246.429 72.6072 246.442 74.0865V96.4295L243.381 97.7686L243.4 74.163C243.4 73.5254 243.19 72.9834 242.769 72.537C242.348 72.0907 241.851 71.8675 241.277 71.8675C240.677 71.8675 240.167 72.0907 239.746 72.537C239.313 72.9961 239.096 73.5317 239.096 74.1439V74.163L239.077 96.4295L236.016 97.7686L236.035 74.163C236.035 73.5254 235.825 72.9834 235.404 72.537C234.983 72.0907 234.486 71.8675 233.912 71.8675C233.325 71.8675 232.815 72.0907 232.382 72.537C231.948 72.9834 231.731 73.5254 231.731 74.163L231.712 96.4295L228.651 97.7686ZM252.544 69.2468H267.886L266.547 72.3075H261.076V94.3253H267.886L266.547 97.386H251.205L252.544 94.3253H258.015V72.3075H251.205L252.544 69.2468ZM281.525 80.3992C284.012 80.6797 286.046 81.5852 287.627 83.1155C289.31 84.7479 290.152 86.7501 290.152 89.1221V89.1795C290.152 91.6025 289.323 93.6366 287.665 95.2817C285.995 96.9396 283.961 97.7686 281.563 97.7686C279.14 97.7686 277.106 96.9396 275.461 95.2817C273.777 93.5729 272.936 91.5643 272.936 89.256V89.0073L275.996 87.6683V89.3134C275.996 90.8438 276.545 92.1445 277.642 93.2158C278.738 94.2998 280.045 94.8418 281.563 94.8418C283.106 94.8418 284.42 94.2998 285.504 93.2158C286.588 92.119 287.13 90.8119 287.13 89.2943C287.13 87.7002 286.607 86.4058 285.561 85.411C284.362 84.276 283.055 83.6575 281.64 83.5555C279.217 83.3642 277.316 82.5799 275.939 81.2026C274.511 79.787 273.797 78.0781 273.797 76.0759C273.797 74.061 274.498 72.3585 275.901 70.9684C277.304 69.5656 279 68.8642 280.989 68.8642C283.004 68.8642 284.707 69.5656 286.097 70.9684C287.512 72.3967 288.22 74.0929 288.22 76.0568V76.2481L285.159 77.6254V76.1142C285.134 74.9282 284.726 73.9462 283.935 73.1683C283.106 72.3521 282.124 71.944 280.989 71.944C279.854 71.944 278.891 72.3394 278.101 73.13C277.284 73.959 276.876 74.9409 276.876 76.0759C276.876 77.2109 277.284 78.1865 278.101 79.0027C278.866 79.7679 280.007 80.2334 281.525 80.3992ZM302.548 97.692C302.127 97.59 301.751 97.3732 301.419 97.0416C300.935 96.557 300.692 95.9576 300.692 95.2435C300.692 94.5421 300.935 93.9491 301.419 93.4645C301.904 92.9671 302.491 92.7184 303.179 92.7184C303.791 92.7184 304.378 92.948 304.939 93.4071C305.487 93.8534 305.819 94.5038 305.934 95.3583C305.972 95.6516 305.991 95.9385 305.991 96.2191C305.991 97.2393 305.742 98.2404 305.245 99.2224C304.314 101.046 303.154 102.105 301.764 102.398C301.394 102.474 301.03 102.513 300.673 102.513C300.469 102.513 300.252 102.5 300.023 102.474C300.291 101.735 300.539 101.04 300.769 100.389C301.304 100.326 301.757 100.007 302.127 99.4328C302.408 98.9992 302.548 98.5529 302.548 98.0938C302.548 97.9535 302.548 97.8196 302.548 97.692ZM35.5221 139.856V149.325H49.1422L47.8031 152.386H32.4615V125.567L35.5221 124.228L46.6554 124.247L45.3163 127.307H35.5221V136.796H46.6554L45.3163 139.856H35.5221ZM52.9298 152.769V132.377C52.9298 130.03 53.7715 128.028 55.4549 126.37C57.1382 124.7 59.1723 123.864 61.5571 123.864C63.9419 123.864 65.976 124.7 67.6593 126.37C69.3427 128.028 70.1844 130.03 70.1844 132.377V151.43L67.1237 152.769V132.319C67.111 130.789 66.5626 129.488 65.4786 128.417C64.3819 127.333 63.0747 126.791 61.5571 126.791C60.0268 126.791 58.7132 127.333 57.6165 128.417C56.5325 129.488 55.9905 130.77 55.9905 132.262C55.9905 132.287 55.9905 132.307 55.9905 132.319V151.43L52.9298 152.769ZM92.1831 142.668V144.256C92.1831 146.603 91.3414 148.611 89.658 150.282C87.9747 151.94 85.9406 152.769 83.5558 152.769C81.1582 152.769 79.1242 151.94 77.4535 150.282C75.7702 148.611 74.9285 146.603 74.9285 144.256V132.377C74.9285 130.03 75.7702 128.028 77.4535 126.37C79.1369 124.7 81.171 123.864 83.5558 123.864C85.9661 123.864 88.0002 124.7 89.658 126.37C91.3414 128.054 92.1831 130.056 92.1831 132.377V132.549L89.1224 133.945V132.319C89.1224 130.802 88.574 129.501 87.4773 128.417C86.3805 127.333 85.0734 126.791 83.5558 126.791C82.0127 126.791 80.6991 127.333 79.6152 128.417C78.5312 129.488 77.9892 130.789 77.9892 132.319V144.313C77.9892 145.831 78.5312 147.132 79.6152 148.216C80.6991 149.3 82.0127 149.842 83.5558 149.842C85.0734 149.842 86.3805 149.3 87.4773 148.216C88.574 147.145 89.1224 145.844 89.1224 144.313V144.084L92.1831 142.668ZM96.9272 152.769V132.377C96.9272 130.03 97.7689 128.028 99.4522 126.37C101.136 124.7 103.17 123.864 105.554 123.864C107.939 123.864 109.973 124.7 111.657 126.37C113.34 128.028 114.182 130.03 114.182 132.377V151.43L111.121 152.769V139.856H99.9878V151.43L96.9272 152.769ZM99.9878 136.796H111.121V132.319C111.108 130.789 110.56 129.488 109.476 128.417C108.379 127.333 107.072 126.791 105.554 126.791C104.024 126.791 102.711 127.333 101.614 128.417C100.53 129.488 99.9878 130.77 99.9878 132.262V132.319V136.796ZM118.926 152.769V132.377C118.926 130.03 119.768 128.028 121.451 126.37C123.134 124.7 125.168 123.864 127.553 123.864C129.938 123.864 131.972 124.7 133.655 126.37C135.339 128.028 136.18 130.03 136.18 132.377V151.43L133.12 152.769V132.319C133.107 130.789 132.559 129.488 131.475 128.417C130.378 127.333 129.071 126.791 127.553 126.791C126.023 126.791 124.709 127.333 123.613 128.417C122.529 129.488 121.987 130.77 121.987 132.262C121.987 132.287 121.987 132.307 121.987 132.319V151.43L118.926 152.769ZM148.021 152.769V127.307H139.413L140.752 124.247H159.69L158.351 127.307H151.082V151.43L148.021 152.769ZM162.923 152.769V132.377C162.923 130.03 163.765 128.028 165.448 126.37C167.132 124.7 169.166 123.864 171.551 123.864C173.935 123.864 175.969 124.7 177.653 126.37C179.336 128.028 180.178 130.03 180.178 132.377V151.43L177.117 152.769V139.856H165.984V151.43L162.923 152.769ZM165.984 136.796H177.117V132.319C177.104 130.789 176.556 129.488 175.472 128.417C174.375 127.333 173.068 126.791 171.551 126.791C170.02 126.791 168.707 127.333 167.61 128.417C166.526 129.488 165.984 130.77 165.984 132.262V132.319V136.796ZM187.963 127.174V149.459H193.549H193.568C195.073 149.459 196.38 148.917 197.49 147.833C198.587 146.762 199.135 145.461 199.135 143.931V132.683C199.135 131.165 198.587 129.864 197.49 128.78C196.393 127.696 195.086 127.154 193.568 127.154H193.549L187.963 127.174ZM193.549 152.386H184.903V125.567L187.963 124.228H193.549H193.568C195.953 124.228 197.987 125.063 199.671 126.734C201.354 128.391 202.196 130.394 202.196 132.74V143.873C202.196 146.22 201.354 148.229 199.671 149.899C197.987 151.557 195.953 152.386 193.568 152.386H193.549ZM224.175 132.377C224.175 132.377 224.175 136.336 224.175 144.256C224.175 146.603 223.334 148.611 221.65 150.282C219.967 151.94 217.933 152.769 215.548 152.769C213.15 152.769 211.116 151.94 209.446 150.282C207.762 148.611 206.921 146.603 206.921 144.256V132.377C206.921 130.03 207.762 128.028 209.446 126.37C211.129 124.7 213.163 123.864 215.548 123.864C217.933 123.864 219.967 124.7 221.65 126.37C223.334 128.028 224.175 130.03 224.175 132.377ZM209.981 132.319V144.313C209.981 145.831 210.523 147.132 211.607 148.216C212.691 149.3 214.005 149.842 215.548 149.842C217.065 149.842 218.373 149.3 219.469 148.216C220.553 147.145 221.102 145.844 221.115 144.313V132.319C221.102 130.789 220.553 129.488 219.469 128.417C218.373 127.333 217.065 126.791 215.548 126.791C214.005 126.791 212.691 127.333 211.607 128.417C210.523 129.488 209.981 130.789 209.981 132.319ZM253.959 127.174V149.459H259.545H259.564C261.069 149.459 262.376 148.917 263.486 147.833C264.583 146.762 265.131 145.461 265.131 143.931V132.683C265.131 131.165 264.583 129.864 263.486 128.78C262.389 127.696 261.082 127.154 259.564 127.154H259.545L253.959 127.174ZM259.545 152.386H250.899V125.567L253.959 124.228H259.545H259.564C261.949 124.228 263.983 125.063 265.667 126.734C267.35 128.391 268.192 130.394 268.192 132.74V143.873C268.192 146.22 267.35 148.229 265.667 149.899C263.983 151.557 261.949 152.386 259.564 152.386H259.545ZM277.508 139.856V149.325H291.128L289.789 152.386H274.447V125.567L277.508 124.228L288.641 124.247L287.302 127.307H277.508V136.796H288.641L287.302 139.856H277.508ZM30.9311 207.769V187.377C30.9311 185.03 31.7728 183.028 33.4562 181.37C35.1396 179.7 37.1736 178.864 39.5584 178.864C41.9432 178.864 43.9773 179.7 45.6607 181.37C47.344 183.028 48.1857 185.03 48.1857 187.377V206.43L45.125 207.769V194.856H33.9918V206.43L30.9311 207.769ZM33.9918 191.796H45.125V187.319C45.1123 185.789 44.5639 184.488 43.4799 183.417C42.3832 182.333 41.076 181.791 39.5584 181.791C38.0281 181.791 36.7145 182.333 35.6178 183.417C34.5338 184.488 33.9918 185.77 33.9918 187.262V187.319V191.796ZM60.0268 207.769V199.007C58.2924 198.714 56.7684 197.923 55.4549 196.635C53.7715 194.965 52.9298 192.956 52.9298 190.61V180.203L55.9905 178.864V190.667C56.0032 192.197 56.5516 193.498 57.6356 194.569C58.7323 195.653 60.0395 196.195 61.5571 196.195C63.0874 196.195 64.401 195.653 65.4977 194.569C66.5817 193.498 67.1237 192.216 67.1237 190.724V190.667V180.203L70.1844 178.864V190.61C70.1844 192.956 69.3427 194.965 67.6593 196.635C66.3458 197.923 64.8218 198.714 63.0874 199.007V206.43L60.0268 207.769ZM74.9285 199.256V180.203L77.9892 178.864V199.313C78.0019 200.844 78.5503 202.145 79.6343 203.216C80.731 204.3 82.0382 204.842 83.5558 204.842C85.0861 204.842 86.3997 204.3 87.4964 203.216C88.5804 202.145 89.1224 200.863 89.1224 199.371C89.1224 199.345 89.1224 199.326 89.1224 199.313V180.203L92.1831 178.864V199.256C92.1831 201.603 91.3414 203.611 89.658 205.282C87.9747 206.94 85.9406 207.769 83.5558 207.769C81.171 207.769 79.1369 206.94 77.4535 205.282C75.7702 203.611 74.9285 201.603 74.9285 199.256ZM99.9687 182.174V204.459H105.554H105.574C107.078 204.459 108.386 203.917 109.495 202.833C110.592 201.762 111.14 200.461 111.14 198.931V187.683C111.14 186.165 110.592 184.864 109.495 183.78C108.398 182.696 107.091 182.154 105.574 182.154H105.554L99.9687 182.174ZM105.554 207.386H96.908V180.567L99.9687 179.228H105.554H105.574C107.958 179.228 109.992 180.063 111.676 181.734C113.359 183.391 114.201 185.394 114.201 187.74V198.873C114.201 201.22 113.359 203.229 111.676 204.899C109.992 206.557 107.958 207.386 105.574 207.386H105.554ZM118.926 207.769V187.377C118.926 185.03 119.768 183.028 121.451 181.37C123.134 179.7 125.168 178.864 127.553 178.864C129.938 178.864 131.972 179.7 133.655 181.37C135.339 183.028 136.18 185.03 136.18 187.377V206.43L133.12 207.769V194.856H121.987V206.43L118.926 207.769ZM121.987 191.796H133.12V187.319C133.107 185.789 132.559 184.488 131.475 183.417C130.378 182.333 129.071 181.791 127.553 181.791C126.023 181.791 124.709 182.333 123.613 183.417C122.529 184.488 121.987 185.77 121.987 187.262V187.319V191.796ZM140.848 207.769V180.203L143.909 179.247H149.514C151.873 179.247 153.875 180.088 155.52 181.772C157.191 183.468 158.026 185.502 158.026 187.874C158.026 190.272 157.197 192.306 155.539 193.976C154.774 194.754 153.932 195.354 153.014 195.774L158.256 206.43L155.176 207.769L149.915 196.501C149.788 196.501 149.654 196.501 149.514 196.501H143.909V206.43L140.848 207.769ZM143.909 182.307V193.441H149.571C151.089 193.441 152.389 192.899 153.473 191.815C154.557 190.731 155.099 189.417 155.099 187.874C155.099 186.357 154.557 185.049 153.473 183.953C152.389 182.856 151.089 182.307 149.571 182.307H143.909ZM170.02 207.769V182.307H161.412L162.751 179.247H181.689L180.35 182.307H173.081V206.43L170.02 207.769ZM189.513 194.856V204.325H203.133L201.794 207.386H186.452V180.567L189.513 179.228L200.646 179.247L199.307 182.307H189.513V191.796H200.646L199.307 194.856H189.513Z" fill="black"/>
</svg>
