<svg width="414" height="691" viewBox="0 0 414 691" fill="none" xmlns="http://www.w3.org/2000/svg">
<g clip-path="url(#clip0_146_640)">
<path d="M255 353L226 327L204 327L177 352.818L222 396.5L255 353Z" fill="#242434"/>
<path d="M222 396.5L218 327H226L255 353L222 396.5Z" fill="#3B3D54"/>
<path d="M319.296 348.36L298 177L261 219.5L319.296 348.36Z" fill="#E6E5E5"/>
<path d="M291.676 131.26L269.7 175.494L151.802 170.099L153.308 66.6084L273.925 56.0582L291.676 131.26Z" fill="#B3622E"/>
<path d="M273.935 92.2763L265.727 149.107L238.308 165.108L194.808 149.107L187.308 117.108L194.808 75.1084L221.309 57.0644L262.129 68.2363L273.935 92.2763Z" fill="#EEC89F"/>
<path d="M151.808 170.608L150.808 65.1084L199.134 35.2379L242.163 30.9262L273.774 56.4436L291.939 131.457L273.774 166.643L273.774 95.769L228.889 64.2343L199.134 82.6084L179.586 155.585L151.808 170.608Z" fill="#DA8536"/>
<rect x="220.308" y="100.108" width="20" height="10" fill="#242434"/>
<rect x="254.308" y="100.108" width="14" height="10" fill="#242434"/>
<path d="M167 181L151 232.495L204 325.682H226L280 232.495L264 181H167Z" fill="#F0F0F0"/>
<path d="M176 225.726V181H264L280 232L255.5 237.5H225.5L176 225.726Z" fill="#FAFAFA"/>
<path d="M241.5 181.682H214L225.5 237.682L214 325.682H226L255 237.682L241.5 181.682Z" fill="#B3622E"/>
<path d="M239 229L225.5 237.5L239 248L254.5 237.5L239 229Z" fill="#FFFFCE"/>
<path d="M177 375L97 434.5L131.5 691L177 375Z" fill="#212531"/>
<path d="M126 512L129 410.5L177 375L156 521L126 512Z" fill="#3B3D54"/>
<path d="M126 535.5L154.5 531L131.5 695L126 535.5Z" fill="#3B3D54"/>
<path d="M119 448H106L108 476.5H120L119 448Z" fill="#F6F4CB"/>
<path d="M111.5 507.5L108.5 479H120L121 507.5H111.5Z" fill="#F6F4CB"/>
<path d="M121 510H111.5L114.5 537.5H122.5L121 510Z" fill="#F6F4CB"/>
<path d="M122.5 540H114.5L116.5 565.5H123.5L122.5 540Z" fill="#F6F4CB"/>
<path d="M308.5 371L234 444L260 691L308.5 371Z" fill="#1D1E2A"/>
<path d="M266 412.5L308.5 371L286 520.5L261 517L266 412.5Z" fill="#2E3042"/>
<path d="M264 541L283.5 536.5L260 691L264 541Z" fill="#2E3042"/>
<path d="M70 405.006L118.712 170.484L173.5 215L70 405.006Z" fill="#FAFAFA"/>
</g>
<defs>
<clipPath id="clip0_146_640">
<rect width="414" height="691" fill="white"/>
</clipPath>
</defs>
</svg>
