<svg width="495" height="756" viewBox="0 0 495 756" fill="none" xmlns="http://www.w3.org/2000/svg">
<path d="M194.942 463.666L246.544 491.378L301.014 468.444L332.548 421.62L335.415 295.481L295.28 282.102L219.788 277.324L168.185 295.481L164.363 421.62L194.942 463.666Z" fill="#E7B17F"/>
<path d="M194.942 465.577L245.589 492.334V286.88L182.519 310.77L166.274 352.816L166.274 422.575L194.942 465.577Z" fill="#DEA877"/>
<path d="M277 397V368H304V397H277Z" fill="#2A221A"/>
<path d="M194 397V368H220V397H194Z" fill="#2A221A"/>
<path d="M188.253 377.662L183.475 376.706L195.898 366.195H221.699L227.433 376.706L220.743 370.973H196.853L188.253 377.662Z" fill="#2A221A"/>
<path d="M308.658 378.618L313.436 377.662L304.5 367.151H275.212L269.479 377.662L276.168 371.929H300.058L308.658 378.618Z" fill="#2A221A"/>
<path d="M269.479 342.305L266.612 354.728L304.836 352.817L322.037 354.728L310.57 342.305H269.479Z" fill="#222222"/>
<path d="M228.388 344.216L231.255 356.639L193.031 354.728L175.83 356.639L187.297 344.216H228.388Z" fill="#222222"/>
<path d="M165.319 398.685L168.185 372.884L176.786 352.817L234.122 320.326L236.033 335.616L284.768 293.569H304.836L332.548 357.595V402.508L362.172 309.815L332.548 269.68L296.236 227.633L256.1 245.79L143.34 348.039L136.651 369.062L147.162 377.662L165.319 398.685Z" fill="black"/>
<path d="M117.539 290.703L106.071 293.569L167.23 238.145L264.701 216.166L296.236 227.633L384.151 290.703L354.527 289.275L387.017 342.305L304.836 286.88L296.236 227.633L259.923 308.859L227.432 333.705L181.564 353.772L165.319 349.95L161.496 353.772L132.828 368.106L200.676 286.88L93.6486 368.106L108.938 343.261L181.564 277.324L96.5154 333.705L111.805 308.859L169.141 260.124L117.539 290.703Z" fill="#1E1D1D"/>
<path d="M166.274 359.506L109.894 391.996L166.274 311.726L107.027 348.039L162.452 273.502L118.494 290.703L164.363 256.301L236.988 226.678L252.278 234.322L202.587 289.747L166.274 359.506Z" fill="#AB0D16"/>
<path d="M166.274 311.726L202.587 289.747L167.23 359.506L109.894 391.996L166.274 311.726Z" fill="#7D060D"/>
<path d="M237.518 371V383L224.098 409H183.839L170.42 392V373M237.518 371V366L226.016 350H181.922L170.42 367V373M237.518 371H259.565M259.565 371L272.026 351H317.078L331.456 365V371M259.565 371V383L272.026 409H317.078L331.456 391V371M331.456 371H342M170.42 373L157 370" stroke="#FEFDFA" stroke-width="2.8668"/>
<path d="M258.967 308.859L204.498 286.88L149.073 390.085L258.967 308.859Z" fill="#121111"/>
<path d="M124.228 637.585L118.494 605.095L377.461 600.317L375.55 643.319L325.859 729.322L287.635 737.923H216.921L171.052 731.234L124.228 637.585Z" fill="#171D2E"/>
<path d="M118.494 605.095L152.896 510.49L340.193 511.446L377.461 600.317L295.28 625.162H196.853L118.494 605.095Z" fill="#1F283F"/>
<path d="M199.72 625.162L211.187 531.514L280.946 533.425L290.502 625.162H199.72Z" fill="#EDEDED"/>
<path d="M246.544 553.492L152.896 509.535L217.876 493.29H278.079L340.193 511.446L246.544 553.492Z" fill="#1A2135"/>
<path d="M210.232 538.203L219.218 493.29H274.826L281.902 538.203L246.544 555.403L210.232 538.203Z" fill="#D0CFD1"/>
<path d="M224.782 737.923L199.72 625.162H290.502L273.95 737.923H224.782Z" fill="#D9D8D8"/>
<rect x="227.432" y="624.41" width="28.668" height="28.668" transform="rotate(-45 227.432 624.41)" fill="#F3C13F"/>
<path d="M31.5347 735.056L3.82239 755.124L26.7568 495.201L108.938 567.826L31.5347 735.056Z" fill="#121624"/>
<path d="M30.5792 735.056L49.6911 725.5L104.16 641.407L107.027 572.604L30.5792 735.056Z" fill="#D8D8D7"/>
<path d="M465.376 727.411L493.089 747.479L470.154 487.556L387.973 560.182L465.376 727.411Z" fill="#121624"/>
<path d="M466.332 727.411L447.22 717.855L392.751 633.763L389.884 564.959L466.332 727.411Z" fill="#D8D8D7"/>
<path d="M339.256 52.8951V158.284L247.987 210.977L156.718 158.284V52.8951L247.987 0.200745L339.256 52.8951ZM182.132 67.1226V141.948L246.933 179.361L311.734 141.948V67.1226L246.933 29.7095L182.132 67.1226Z" fill="#F3C13F"/>
<path d="M247.987 52.8952L293.621 79.2423V131.936L247.987 158.284L202.352 131.936V79.2423L247.987 52.8952Z" fill="#F3C13F"/>
</svg>
