<svg width="128" height="128" viewBox="0 0 128 128" fill="none" xmlns="http://www.w3.org/2000/svg">
<g clip-path="url(#clip0_69_1724)">
<path d="M85 35H105L100 85H80L85 35Z" fill="#3B3E43"/>
<path d="M80 25H110L105 55H85L80 25Z" fill="#D4CEB8"/>
<path d="M85 30H100L95 65H80L85 30Z" fill="#22252A"/>
<path d="M66 85H86L81 120H71L66 85Z" fill="#3B3E43"/>
<path d="M70 85H82L78 115H74L70 85Z" fill="#D4CEB8"/>
<path d="M35 30H93L85 85H43L35 30Z" fill="#3B3E43"/>
<path d="M25 25H103L90 55H38L25 25Z" fill="#D4CEB8"/>
<path d="M50 40H78L70 75H58L50 40Z" fill="#22252A"/>
<path d="M58 45H70L66 55H62L58 45Z" fill="#F98822"/>
<path d="M45 5H83L78 20H50L45 5Z" fill="#3B3E43"/>
<path d="M40 0H88L83 15H45L40 0Z" fill="#D4CEB8"/>
<path d="M50 8H78L74 15H54L50 8Z" fill="#22252A"/>
<path d="M55 10H73L70 13H58L55 10Z" fill="#00E575"/>
<path d="M42 85H62L57 120H47L42 85Z" fill="#3B3E43"/>
<path d="M46 85H58L54 115H50L46 85Z" fill="#D4CEB8"/>
<path d="M23 35H43L48 85H28L23 35Z" fill="#3B3E43"/>
<path d="M18 25H48L43 55H23L18 25Z" fill="#D4CEB8"/>
<path d="M28 30H43L48 65H33L28 30Z" fill="#22252A"/>
</g>
<defs>
<clipPath id="clip0_69_1724">
<rect width="128" height="128" fill="white"/>
</clipPath>
</defs>
</svg>
