<svg width="128" height="128" viewBox="0 0 128 128" fill="none" xmlns="http://www.w3.org/2000/svg">
<path d="M75 52L88 47L95 72L82 77L75 52Z" fill="#22252A"/>
<path d="M82 77L95 72L98 97L85 102L82 77Z" fill="#22252A"/>
<path d="M96 17H90V122H96V17Z" fill="#22252A"/>
<path d="M95 27H91V117H95V27Z" fill="#3B3E43"/>
<path d="M85 12H101L98 27H88L85 12Z" fill="#22252A"/>
<path d="M93 7H98L96 12H90L93 7Z" fill="#F98822"/>
<path d="M68 82L81 77L88 102L76 107L68 82Z" fill="#22252A"/>
<path d="M69 83L79 79L85 100L75 104L69 83Z" fill="#823737"/>
<path d="M76 107L88 102L91 122L71 125L76 107Z" fill="#22252A"/>
<path d="M77 108L87 104L89 121L73 123L77 108Z" fill="#823737"/>
<path d="M45 35L85 30L90 75L52 85L45 35Z" fill="#22252A"/>
<path d="M50 55L80 50L82 78L58 82L50 55Z" fill="#823737"/>
<path opacity="0.8" d="M55 60L75 55L77 75L62 78L55 60Z" fill="#823737"/>
<path d="M38 32L92 25L85 45L60 65L42 50L38 32Z" fill="#D4CEB8"/>
<path d="M60 40L66 35L74 38V45L68 50L60 47V40Z" fill="#F98822"/>
<path d="M63 42L66 40L70 41V44L67 46L63 44V42Z" fill="#22252A"/>
<path d="M52 25H62L58 35H48L52 25Z" fill="#22252A"/>
<path d="M45 15L70 20L75 30L55 38L45 15Z" fill="#22252A"/>
<path d="M46 16L68 21L72 29L56 36L46 16Z" fill="#823737"/>
<path opacity="0.1" d="M48 17L65 21L68 27L58 32L48 17Z" fill="white"/>
<path d="M60 22L66 24L64 32L58 30L60 22Z" fill="#22252A"/>
<path d="M62 24L64 26L63 30L61 28L62 24Z" fill="#F98822"/>
<path d="M46 84L61 79L68 109L51 114L46 84Z" fill="#22252A"/>
<path d="M47 85L60 81L66 104L52 109L47 85Z" fill="#823737"/>
<path d="M51 114L68 109L71 127H46L51 114Z" fill="#22252A"/>
<path d="M53 115L66 111L69 125H48L53 115Z" fill="#823737"/>
<path d="M44 104L71 99L74 111L48 117L44 104Z" fill="#D4CEB8"/>
<path d="M22 41L47 36L42 51L19 56L22 41Z" fill="#823737"/>
<path opacity="0.15" d="M24 42L44 38L40 48L21 53L24 42Z" fill="white"/>
<path d="M27 54L37 51L42 76L32 78L27 54Z" fill="#22252A"/>
<path d="M13 54L49 46L55 92L29 128L7 96L13 54Z" fill="#22252A"/>
<path d="M15 56L47 48L52 90L29 124L9 94L15 56Z" fill="#823737"/>
<path d="M35 52L47 48L52 88L35 98V52Z" fill="#D4CEB8"/>
<path d="M27 71L39 76V91L27 101L15 96V81L27 71Z" fill="#F98822"/>
<path d="M27 76L35 80V88L27 94L21 90V82L27 76Z" fill="#22252A"/>
<path d="M27 79L32 82V86L27 90L24 87V83L27 79Z" fill="#D4CEB8"/>
</svg>
