<svg width="128" height="128" viewBox="0 0 128 128" fill="none" xmlns="http://www.w3.org/2000/svg">
<path d="M65 35H85L80 75H60L65 35Z" fill="#3B3E43"/>
<path d="M62 32H82L77 72H57L62 32Z" fill="#22252A"/>
<path d="M75 15H80L75 95H70L75 15Z" fill="#22252A"/>
<path d="M77 15H80L78 40H75L77 15Z" fill="#F98822"/>
<path d="M55 95H80L75 115H50L55 95Z" fill="#3B3E43"/>
<path d="M53 92H78L73 112H48L53 92Z" fill="#22252A"/>
<path d="M40 30H80L85 80H45L40 30Z" fill="#3B3E43"/>
<path d="M35 25H75L80 75H40L35 25Z" fill="#D4CEB8"/>
<path d="M40 35H50L54 65H44L40 35Z" fill="#F98822"/>
<path d="M42 38H48L52 60H46L42 38Z" fill="#D4CEB8"/>
<path d="M55 30H75L80 70H60L55 30Z" fill="#22252A"/>
<path d="M60 35H70L74 60H64L60 35Z" fill="#00E575"/>
<path opacity="0.3" d="M62 38H68L72 55H66L62 38Z" fill="white"/>
<path d="M45 5H75L80 20H50L45 5Z" fill="#3B3E43"/>
<path d="M40 0H70L75 15H45L40 0Z" fill="#D4CEB8"/>
<path d="M43 5H65L68 12H46L43 5Z" fill="#22252A"/>
<path d="M45 6H55L57 10H47L45 6Z" fill="#00E575"/>
<path d="M40 90H65L60 120H35L40 90Z" fill="#3B3E43"/>
<path d="M35 85H60L55 115H30L35 85Z" fill="#D4CEB8"/>
<path d="M38 95H55L51 105H34L38 95Z" fill="#22252A"/>
<path d="M25 40H50L55 90H30L25 40Z" fill="#3B3E43"/>
<path d="M20 35H45L50 85H25L20 35Z" fill="#D4CEB8"/>
<path d="M25 40H40L44 75H29L25 40Z" fill="#22252A"/>
<path d="M28 43H35L38 70H31L28 43Z" fill="#00E575"/>
<path d="M35 40H45L48 55H38L35 40Z" fill="#F98822"/>
</svg>
