<svg width="128" height="128" viewBox="0 0 128 128" fill="none" xmlns="http://www.w3.org/2000/svg">
<path d="M62 60H68L65 75L58 70L62 60Z" fill="#22252A"/>
<path d="M65 75L58 70L60 85L68 88L65 75Z" fill="#22252A"/>
<path d="M71 10H68V120H71V10Z" fill="#22252A"/>
<path d="M67 15L69.5 0L72 15H67Z" fill="#D4CEB8"/>
<path d="M55 80H62L65 100H58L55 80Z" fill="#22252A"/>
<path d="M56 100H64L60 125H54L56 100Z" fill="#22252A"/>
<path d="M50 60H64L58 85H52L50 60Z" fill="#22252A"/>
<path d="M45 45H68L62 65H48L45 45Z" fill="#5B7B43"/>
<path d="M35 40H80L70 55L58 65L45 55L35 40Z" fill="#D4CEB8"/>
<path opacity="0.3" d="M35 40H80L72 45H42L35 40Z" fill="white"/>
<path d="M58 45L62 48V52L58 55L54 52V48L58 45Z" fill="#F98822"/>
<path d="M58 47L60 49V51L58 53L56 51V49L58 47Z" fill="#22252A"/>
<path d="M54 35H60L58 45H52L54 35Z" fill="#22252A"/>
<path d="M58 15L70 25L60 38L48 28L58 15Z" fill="#5B7B43"/>
<path d="M58 15L70 25L64 28L54 20L58 15Z" fill="#D4CEB8"/>
<path d="M54 26L62 24L64 32L56 34L54 26Z" fill="#22252A"/>
<path d="M56 28L60 27L61 30L57 31L56 28Z" fill="#00E575"/>
<path d="M48 80H58L62 105H52L48 80Z" fill="#22252A"/>
<path d="M49 82H56L60 103H52L49 82Z" fill="#5B7B43"/>
<path d="M52 105H62L58 128H48L52 105Z" fill="#22252A"/>
<path d="M53 107H60L57 125H50L53 107Z" fill="#5B7B43"/>
<path d="M50 100H62L64 108H48L50 100Z" fill="#D4CEB8"/>
<path d="M45 48H55L50 65H40L45 48Z" fill="#22252A"/>
<path d="M40 65H50L55 85H45L40 65Z" fill="#22252A"/>
<path d="M48 55L60 50L65 65L55 100L40 95L38 70L48 55Z" fill="#22252A"/>
<path d="M49 57L58 53L63 66L54 98L42 93L40 71L49 57Z" fill="#5B7B43"/>
<path opacity="0.4" d="M49 57L58 53L60 65L44 70L49 57Z" fill="#D4CEB8"/>
<path d="M42 93L54 98L52 90L44 88L42 93Z" fill="#F98822"/>
</svg>
