<svg width="128" height="128" viewBox="0 0 128 128" fill="none" xmlns="http://www.w3.org/2000/svg">
<g clip-path="url(#clip0_69_1662)">
<path d="M85 45H98L95 85H82L85 45Z" fill="#22252A"/>
<path d="M80 40H103L98 58H85L80 40Z" fill="#D4CEB8"/>
<path d="M66 80H76V125H66V80Z" fill="#22252A"/>
<path d="M67 82H75V123H67V82Z" fill="#5B7B43"/>
<path d="M64 100H78V110H64V100Z" fill="#D4CEB8"/>
<path d="M40 40H88L78 85H50L40 40Z" fill="#22252A"/>
<path d="M42 42H86L80 65H48L42 42Z" fill="#5B7B43"/>
<path d="M35 40H93L74 65H54L35 40Z" fill="#D4CEB8"/>
<path d="M56 45H72L68 55H60L56 45Z" fill="#F98822"/>
<path d="M58 35H70V45H58V35Z" fill="#22252A"/>
<path d="M50 15H78L64 38L50 15Z" fill="#5B7B43"/>
<path d="M45 15H83L64 25L45 15Z" fill="#D4CEB8"/>
<path d="M56 26H72L68 34H60L56 26Z" fill="#22252A"/>
<path d="M58 28H70L66 32H62L58 28Z" fill="#00E575"/>
<path d="M52 80H62V125H52V80Z" fill="#22252A"/>
<path d="M53 82H61V123H53V82Z" fill="#5B7B43"/>
<path d="M50 100H64V110H50V100Z" fill="#D4CEB8"/>
<path d="M30 45H43L46 85H33L30 45Z" fill="#22252A"/>
<path d="M25 40H48L43 58H30L25 40Z" fill="#D4CEB8"/>
</g>
<defs>
<clipPath id="clip0_69_1662">
<rect width="128" height="128" fill="white"/>
</clipPath>
</defs>
</svg>
